#N canvas 523 547 269 446 10;
#X obj 22 281 output~;
#N canvas 0 264 895 816 instrumentoCluster 0;
#X obj 126 549 freeverb~;
#X msg 50 532 dry \$1;
#X floatatom 50 511 5 0 0 0 - - -;
#X obj 50 470 loadbang;
#X msg 50 489 0.3;
#N canvas 626 403 532 364 int1 0;
#X obj 83 99 osc~;
#X obj 129 99 osc~;
#X obj 172 99 osc~;
#X obj 221 98 osc~;
#X obj 128 183 *~ 0.2;
#X obj 172 68 * 4;
#X obj 221 52 * 7;
#X floatatom 83 12 5 0 0 0 - - -;
#X obj 173 162 *~ 0.2;
#X obj 84 165 *~ 0.5;
#X obj 127 235 *~ 0.4;
#X obj 220 179 *~ 0.05;
#X obj 129 50 * 2.01;
#X obj 289 95 osc~;
#X obj 288 176 *~ 0.05;
#X obj 289 49 * 3;
#X obj 26 18 inlet;
#X obj 127 302 outlet~;
#X obj 26 40 mtof;
#X obj 281 244 noise~;
#X obj 353 302 line~;
#X obj 315 318 *~;
#X msg 402 279 0 50;
#X obj 402 193 bng 15 250 50 0 empty empty empty 17 7 0 10 -262144
-1 -1;
#X obj 402 237 bng 15 250 50 0 empty empty empty 17 7 0 10 -262144
-1 -1;
#X obj 402 255 del 40;
#X obj 353 163 r ruid;
#X msg 353 238 0.2 30;
#X obj 311 208 random 1000;
#X obj 281 302 bp~;
#X floatatom 312 286 5 0 0 0 - - -;
#X obj 311 265 + 600;
#X obj 314 344 *~ 1.5;
#X msg 449 269 10;
#X obj 449 251 loadbang;
#X connect 0 0 9 0;
#X connect 1 0 4 0;
#X connect 2 0 8 0;
#X connect 3 0 11 0;
#X connect 4 0 10 0;
#X connect 5 0 2 0;
#X connect 6 0 3 0;
#X connect 7 0 0 0;
#X connect 7 0 5 0;
#X connect 7 0 6 0;
#X connect 7 0 12 0;
#X connect 7 0 15 0;
#X connect 8 0 10 0;
#X connect 9 0 10 0;
#X connect 10 0 17 0;
#X connect 11 0 10 0;
#X connect 12 0 1 0;
#X connect 13 0 14 0;
#X connect 14 0 10 0;
#X connect 15 0 13 0;
#X connect 16 0 18 0;
#X connect 18 0 7 0;
#X connect 19 0 29 0;
#X connect 20 0 21 1;
#X connect 21 0 32 0;
#X connect 22 0 20 0;
#X connect 23 0 28 0;
#X connect 23 0 27 0;
#X connect 24 0 25 0;
#X connect 25 0 22 0;
#X connect 26 0 27 0;
#X connect 26 0 28 0;
#X connect 27 0 20 0;
#X connect 27 0 24 0;
#X connect 28 0 31 0;
#X connect 29 0 21 0;
#X connect 30 0 29 2;
#X connect 31 0 29 1;
#X connect 32 0 17 0;
#X connect 33 0 30 0;
#X connect 34 0 33 0;
#X restore 59 -55 pd int1;
#X obj 126 297 *~;
#N canvas 646 388 532 364 int1 0;
#X obj 83 99 osc~;
#X obj 129 99 osc~;
#X obj 172 99 osc~;
#X obj 221 98 osc~;
#X obj 128 183 *~ 0.2;
#X obj 172 68 * 4;
#X obj 221 52 * 7;
#X floatatom 83 12 5 0 0 0 - - -;
#X obj 173 162 *~ 0.2;
#X obj 84 165 *~ 0.5;
#X obj 127 235 *~ 0.4;
#X obj 220 179 *~ 0.05;
#X obj 129 50 * 2.01;
#X obj 289 95 osc~;
#X obj 288 176 *~ 0.05;
#X obj 289 49 * 3;
#X obj 127 302 outlet~;
#X obj 36 28 inlet;
#X obj 36 50 mtof;
#X connect 0 0 9 0;
#X connect 1 0 4 0;
#X connect 2 0 8 0;
#X connect 3 0 11 0;
#X connect 4 0 10 0;
#X connect 5 0 2 0;
#X connect 6 0 3 0;
#X connect 7 0 0 0;
#X connect 7 0 5 0;
#X connect 7 0 6 0;
#X connect 7 0 12 0;
#X connect 7 0 15 0;
#X connect 8 0 10 0;
#X connect 9 0 10 0;
#X connect 10 0 16 0;
#X connect 11 0 10 0;
#X connect 12 0 1 0;
#X connect 13 0 14 0;
#X connect 14 0 10 0;
#X connect 15 0 13 0;
#X connect 17 0 18 0;
#X connect 18 0 7 0;
#X restore 112 -45 pd int1;
#N canvas 646 388 532 364 int1 0;
#X obj 83 99 osc~;
#X obj 129 99 osc~;
#X obj 172 99 osc~;
#X obj 221 98 osc~;
#X obj 128 183 *~ 0.2;
#X obj 172 68 * 4;
#X obj 221 52 * 7;
#X floatatom 83 12 5 0 0 0 - - -;
#X obj 173 162 *~ 0.2;
#X obj 84 165 *~ 0.5;
#X obj 127 235 *~ 0.4;
#X obj 220 179 *~ 0.05;
#X obj 129 50 * 2.01;
#X obj 289 95 osc~;
#X obj 288 176 *~ 0.05;
#X obj 289 49 * 3;
#X obj 127 302 outlet~;
#X obj 46 38 inlet;
#X obj 46 60 mtof;
#X connect 0 0 9 0;
#X connect 1 0 4 0;
#X connect 2 0 8 0;
#X connect 3 0 11 0;
#X connect 4 0 10 0;
#X connect 5 0 2 0;
#X connect 6 0 3 0;
#X connect 7 0 0 0;
#X connect 7 0 5 0;
#X connect 7 0 6 0;
#X connect 7 0 12 0;
#X connect 7 0 15 0;
#X connect 8 0 10 0;
#X connect 9 0 10 0;
#X connect 10 0 16 0;
#X connect 11 0 10 0;
#X connect 12 0 1 0;
#X connect 13 0 14 0;
#X connect 14 0 10 0;
#X connect 15 0 13 0;
#X connect 17 0 18 0;
#X connect 18 0 7 0;
#X restore 132 -13 pd int1;
#N canvas 646 388 532 364 int1 0;
#X obj 83 99 osc~;
#X obj 129 99 osc~;
#X obj 172 99 osc~;
#X obj 221 98 osc~;
#X obj 128 183 *~ 0.2;
#X obj 172 68 * 4;
#X obj 221 52 * 7;
#X floatatom 83 12 5 0 0 0 - - -;
#X obj 173 162 *~ 0.2;
#X obj 84 165 *~ 0.5;
#X obj 127 235 *~ 0.4;
#X obj 220 179 *~ 0.05;
#X obj 129 50 * 2.01;
#X obj 289 95 osc~;
#X obj 288 176 *~ 0.05;
#X obj 289 49 * 3;
#X obj 127 302 outlet~;
#X obj 27 32 inlet;
#X obj 27 54 mtof;
#X connect 0 0 9 0;
#X connect 1 0 4 0;
#X connect 2 0 8 0;
#X connect 3 0 11 0;
#X connect 4 0 10 0;
#X connect 5 0 2 0;
#X connect 6 0 3 0;
#X connect 7 0 0 0;
#X connect 7 0 5 0;
#X connect 7 0 6 0;
#X connect 7 0 12 0;
#X connect 7 0 15 0;
#X connect 8 0 10 0;
#X connect 9 0 10 0;
#X connect 10 0 16 0;
#X connect 11 0 10 0;
#X connect 12 0 1 0;
#X connect 13 0 14 0;
#X connect 14 0 10 0;
#X connect 15 0 13 0;
#X connect 17 0 18 0;
#X connect 18 0 7 0;
#X restore 148 7 pd int1;
#N canvas 646 388 532 364 int1 0;
#X obj 83 99 osc~;
#X obj 129 99 osc~;
#X obj 172 99 osc~;
#X obj 221 98 osc~;
#X obj 128 183 *~ 0.2;
#X obj 172 68 * 4;
#X obj 221 52 * 7;
#X floatatom 83 12 5 0 0 0 - - -;
#X obj 173 162 *~ 0.2;
#X obj 84 165 *~ 0.5;
#X obj 127 235 *~ 0.4;
#X obj 220 179 *~ 0.05;
#X obj 129 50 * 2.01;
#X obj 289 95 osc~;
#X obj 288 176 *~ 0.05;
#X obj 289 49 * 3;
#X obj 127 302 outlet~;
#X obj 23 14 inlet;
#X obj 23 36 mtof;
#X connect 0 0 9 0;
#X connect 1 0 4 0;
#X connect 2 0 8 0;
#X connect 3 0 11 0;
#X connect 4 0 10 0;
#X connect 5 0 2 0;
#X connect 6 0 3 0;
#X connect 7 0 0 0;
#X connect 7 0 5 0;
#X connect 7 0 6 0;
#X connect 7 0 12 0;
#X connect 7 0 15 0;
#X connect 8 0 10 0;
#X connect 9 0 10 0;
#X connect 10 0 16 0;
#X connect 11 0 10 0;
#X connect 12 0 1 0;
#X connect 13 0 14 0;
#X connect 14 0 10 0;
#X connect 15 0 13 0;
#X connect 17 0 18 0;
#X connect 18 0 7 0;
#X restore 165 29 pd int1;
#N canvas 646 388 532 364 int1 0;
#X obj 83 99 osc~;
#X obj 129 99 osc~;
#X obj 172 99 osc~;
#X obj 221 98 osc~;
#X obj 128 183 *~ 0.2;
#X obj 172 68 * 4;
#X obj 221 52 * 7;
#X floatatom 83 12 5 0 0 0 - - -;
#X obj 173 162 *~ 0.2;
#X obj 84 165 *~ 0.5;
#X obj 127 235 *~ 0.4;
#X obj 220 179 *~ 0.05;
#X obj 129 50 * 2.01;
#X obj 289 95 osc~;
#X obj 288 176 *~ 0.05;
#X obj 289 49 * 3;
#X obj 127 302 outlet~;
#X obj 32 13 inlet;
#X obj 32 35 mtof;
#X connect 0 0 9 0;
#X connect 1 0 4 0;
#X connect 2 0 8 0;
#X connect 3 0 11 0;
#X connect 4 0 10 0;
#X connect 5 0 2 0;
#X connect 6 0 3 0;
#X connect 7 0 0 0;
#X connect 7 0 5 0;
#X connect 7 0 6 0;
#X connect 7 0 12 0;
#X connect 7 0 15 0;
#X connect 8 0 10 0;
#X connect 9 0 10 0;
#X connect 10 0 16 0;
#X connect 11 0 10 0;
#X connect 12 0 1 0;
#X connect 13 0 14 0;
#X connect 14 0 10 0;
#X connect 15 0 13 0;
#X connect 17 0 18 0;
#X connect 18 0 7 0;
#X restore 176 53 pd int1;
#N canvas 648 374 532 364 int1 0;
#X obj 83 99 osc~;
#X obj 129 99 osc~;
#X obj 172 99 osc~;
#X obj 221 98 osc~;
#X obj 128 183 *~ 0.2;
#X obj 172 68 * 4;
#X obj 221 52 * 7;
#X floatatom 83 12 5 0 0 0 - - -;
#X obj 173 162 *~ 0.2;
#X obj 84 165 *~ 0.5;
#X obj 127 235 *~ 0.4;
#X obj 220 179 *~ 0.05;
#X obj 129 50 * 2.01;
#X obj 289 95 osc~;
#X obj 288 176 *~ 0.05;
#X obj 289 49 * 3;
#X obj 127 302 outlet~;
#X obj 38 13 inlet;
#X obj 38 35 mtof;
#X connect 0 0 9 0;
#X connect 1 0 4 0;
#X connect 2 0 8 0;
#X connect 3 0 11 0;
#X connect 4 0 10 0;
#X connect 5 0 2 0;
#X connect 6 0 3 0;
#X connect 7 0 0 0;
#X connect 7 0 5 0;
#X connect 7 0 6 0;
#X connect 7 0 12 0;
#X connect 7 0 15 0;
#X connect 8 0 10 0;
#X connect 9 0 10 0;
#X connect 10 0 16 0;
#X connect 11 0 10 0;
#X connect 12 0 1 0;
#X connect 13 0 14 0;
#X connect 14 0 10 0;
#X connect 15 0 13 0;
#X connect 17 0 18 0;
#X connect 18 0 7 0;
#X restore 189 73 pd int1;
#N canvas 646 388 532 364 int1 0;
#X obj 83 99 osc~;
#X obj 129 99 osc~;
#X obj 172 99 osc~;
#X obj 221 98 osc~;
#X obj 128 183 *~ 0.2;
#X obj 172 68 * 4;
#X obj 221 52 * 7;
#X floatatom 83 12 5 0 0 0 - - -;
#X obj 173 162 *~ 0.2;
#X obj 84 165 *~ 0.5;
#X obj 127 235 *~ 0.4;
#X obj 220 179 *~ 0.05;
#X obj 129 50 * 2.01;
#X obj 289 95 osc~;
#X obj 288 176 *~ 0.05;
#X obj 289 49 * 3;
#X obj 127 302 outlet~;
#X obj 36 15 inlet;
#X obj 36 37 mtof;
#X connect 0 0 9 0;
#X connect 1 0 4 0;
#X connect 2 0 8 0;
#X connect 3 0 11 0;
#X connect 4 0 10 0;
#X connect 5 0 2 0;
#X connect 6 0 3 0;
#X connect 7 0 0 0;
#X connect 7 0 5 0;
#X connect 7 0 6 0;
#X connect 7 0 12 0;
#X connect 7 0 15 0;
#X connect 8 0 10 0;
#X connect 9 0 10 0;
#X connect 10 0 16 0;
#X connect 11 0 10 0;
#X connect 12 0 1 0;
#X connect 13 0 14 0;
#X connect 14 0 10 0;
#X connect 15 0 13 0;
#X connect 17 0 18 0;
#X connect 18 0 7 0;
#X restore 200 97 pd int1;
#X obj 169 -62 + 1;
#X floatatom 28 -80 5 0 0 0 - - -;
#X obj 188 -30 + 1;
#X obj 199 -10 + 1;
#X obj 214 12 + 1;
#X obj 229 36 + 1;
#X obj 244 56 + 1;
#X obj 255 80 + 1;
#N canvas 547 467 450 300 ruidoMascara 0;
#X obj 171 41 noise~;
#X obj 90 43 noise~;
#X obj 240 43 noise~;
#X obj 198 271 outlet~;
#X obj 342 37 noise~;
#X obj 90 232 *~ 0.5;
#X obj 344 228 *~ 1;
#X obj 199 244 *~ 1;
#X obj 89 119 bp~ 100 30;
#X obj 170 154 bp~ 242 30;
#X obj 241 187 bp~ 410 30;
#X obj 343 181 bp~ 1410 35;
#X obj 10 84 random 30;
#X obj 10 46 inlet;
#X obj 269 122 + 390;
#X obj 198 126 + 210;
#X obj 10 102 + 80;
#X obj 374 89 random 800;
#X obj 374 107 + 900;
#X obj 269 104 random 150;
#X obj 198 108 random 100;
#X connect 0 0 9 0;
#X connect 1 0 8 0;
#X connect 2 0 10 0;
#X connect 4 0 11 0;
#X connect 6 0 5 0;
#X connect 6 0 7 0;
#X connect 7 0 3 0;
#X connect 8 0 5 0;
#X connect 8 0 7 0;
#X connect 9 0 5 0;
#X connect 9 0 7 0;
#X connect 10 0 5 0;
#X connect 10 0 7 0;
#X connect 11 0 6 0;
#X connect 12 0 16 0;
#X connect 13 0 12 0;
#X connect 13 0 17 0;
#X connect 13 0 19 0;
#X connect 13 0 20 0;
#X connect 14 0 10 1;
#X connect 15 0 9 1;
#X connect 16 0 8 1;
#X connect 17 0 18 0;
#X connect 18 0 11 1;
#X connect 19 0 14 0;
#X connect 20 0 15 0;
#X restore 347 384 pd ruidoMascara;
#N canvas 770 467 450 300 ADSR 0;
#X obj 115 201 vline~;
#X floatatom 186 101 5 0 0 0 - - -;
#X floatatom 221 101 5 0 0 0 - - -;
#X floatatom 151 101 5 0 0 0 - - -;
#X msg 211 183 0 \$2;
#X obj 211 141 pack f f;
#X floatatom 256 102 5 0 0 0 - - -;
#X obj 158 52 loadbang;
#X obj 128 102 bng 15 250 50 0 empty empty empty 17 7 0 10 -262144
-1 -1;
#X obj 246 172 bng 15 250 50 0 empty empty empty 17 7 0 10 -262144
-1 -1;
#X msg 221 75 100;
#X msg 256 74 200;
#X msg 186 76 0.5;
#X obj 118 20 inlet;
#X obj 262 20 inlet;
#X obj 121 238 outlet~;
#X msg 151 76 10;
#X obj 128 140 pack f f f f;
#X msg 272 153 1 \$2 \, \$3 \$4 \$2;
#X obj 52 117 s ruid;
#X msg 180 221 1 \$2 \, \$3 \$4 \$2 \, 0.05 12000 110;
#X connect 0 0 15 0;
#X connect 1 0 17 2;
#X connect 2 0 17 3;
#X connect 3 0 17 1;
#X connect 4 0 0 0;
#X connect 5 0 4 0;
#X connect 6 0 5 1;
#X connect 7 0 16 0;
#X connect 7 0 12 0;
#X connect 7 0 10 0;
#X connect 7 0 11 0;
#X connect 8 0 17 0;
#X connect 8 0 19 0;
#X connect 9 0 5 0;
#X connect 10 0 2 0;
#X connect 11 0 6 0;
#X connect 12 0 1 0;
#X connect 13 0 8 0;
#X connect 14 0 9 0;
#X connect 16 0 3 0;
#X connect 17 0 20 0;
#X connect 20 0 0 0;
#X restore 362 281 pd ADSR;
#X obj 362 235 bng 15 250 50 0 empty empty empty 17 7 0 10 -262144
-1 -1;
#X obj 401 235 bng 15 250 50 0 empty empty empty 17 7 0 10 -262144
-1 -1;
#N canvas 782 467 450 300 ADSR 0;
#X obj 115 201 vline~;
#X msg 115 174 1 \$2 \, \$3 \$4 \$2;
#X obj 128 140 pack f f f f;
#X floatatom 186 101 5 0 0 0 - - -;
#X floatatom 221 101 5 0 0 0 - - -;
#X floatatom 151 101 5 0 0 0 - - -;
#X msg 211 183 0 \$2;
#X obj 211 141 pack f f;
#X floatatom 256 102 5 0 0 0 - - -;
#X obj 158 52 loadbang;
#X obj 128 102 bng 15 250 50 0 empty empty empty 17 7 0 10 -262144
-1 -1;
#X obj 246 172 bng 15 250 50 0 empty empty empty 17 7 0 10 -262144
-1 -1;
#X msg 151 76 50;
#X msg 221 75 100;
#X msg 256 74 200;
#X obj 118 20 inlet;
#X obj 262 20 inlet;
#X obj 121 238 outlet~;
#X msg 219 236 1 \$2 \, \$3 \$4 \$2 \, 0 8000 110;
#X msg 186 75 0.9;
#X connect 0 0 17 0;
#X connect 1 0 0 0;
#X connect 2 0 18 0;
#X connect 3 0 2 2;
#X connect 4 0 2 3;
#X connect 5 0 2 1;
#X connect 6 0 0 0;
#X connect 7 0 6 0;
#X connect 8 0 7 1;
#X connect 9 0 12 0;
#X connect 9 0 19 0;
#X connect 9 0 13 0;
#X connect 9 0 14 0;
#X connect 10 0 2 0;
#X connect 11 0 7 0;
#X connect 12 0 5 0;
#X connect 13 0 4 0;
#X connect 14 0 8 0;
#X connect 15 0 10 0;
#X connect 16 0 11 0;
#X connect 18 0 0 0;
#X connect 19 0 3 0;
#X restore 362 328 pd ADSR;
#X obj 347 420 *~;
#X floatatom 15 428 5 0 0 0 - - -;
#X obj 15 385 loadbang;
#X msg 15 449 wet \$1;
#X msg 15 406 0.8;
#X obj 480 250 s b;
#X obj 362 108 notein 1;
#X obj 362 132 stripnote;
#X obj 362 151 sel 36;
#X obj 127 472 *~;
#X obj 279 403 / 128;
#X obj 279 384 ctlin 1 1;
#X obj 255 403 * 3;
#X obj 189 -162 / 128;
#X obj 189 -186 ctlin 5 1;
#X obj 125 589 catch~ reverbI;
#X obj 178 606 catch~ reverbD;
#X obj 347 441 *~;
#N canvas 750 493 450 300 ADSRgolpe 0;
#X obj 122 136 line~;
#X obj 90 163 *~;
#X msg 122 87 1 1;
#N canvas 1 150 740 501 FM 0;
#X obj 274 297 *~;
#X obj 409 263 line~;
#X obj 128 403 cos~;
#X obj 128 374 +~;
#X obj 409 240 pack 0 50;
#X floatatom 409 192 5 0 300 0 - - -;
#X obj 128 269 phasor~;
#X obj 273 238 osc~;
#X floatatom 218 38 4 0 15 0 - - -;
#X obj 128 155 *;
#X text 251 38 carrier;
#X obj 273 157 *;
#X floatatom 353 40 4 0 15 0 - - -;
#X text 388 39 mod 1;
#X text 450 192 index1;
#X obj 517 299 *~;
#X obj 650 264 line~;
#X obj 650 241 pack 0 50;
#X obj 516 253 osc~;
#X obj 516 159 *;
#X floatatom 516 42 4 0 15 0 - - -;
#X text 549 41 mod 2;
#X text 692 192 index2;
#X obj 218 10 r fc;
#X obj 353 10 r m1;
#X obj 516 10 r m2;
#X floatatom 650 191 5 0 300 0 - - -;
#X obj 409 163 r i1;
#X obj 650 162 r i2;
#X obj 31 43 inlet Fundamental;
#X obj 31 74 t f f f;
#X obj 218 82 t b f;
#X obj 353 82 t b f;
#X obj 516 77 t b f;
#X obj 127 437 outlet~;
#X text 172 403 use cos for higher quality results (slower);
#X obj 128 240 line~;
#X obj 273 213 line~;
#X obj 516 213 line~;
#X connect 0 0 3 1;
#X connect 1 0 0 1;
#X connect 2 0 34 0;
#X connect 3 0 2 0;
#X connect 4 0 1 0;
#X connect 5 0 4 0;
#X connect 6 0 3 0;
#X connect 7 0 0 0;
#X connect 8 0 31 0;
#X connect 9 0 36 0;
#X connect 11 0 37 0;
#X connect 12 0 32 0;
#X connect 15 0 3 1;
#X connect 16 0 15 1;
#X connect 17 0 16 0;
#X connect 18 0 15 0;
#X connect 19 0 38 0;
#X connect 20 0 33 0;
#X connect 23 0 8 0;
#X connect 24 0 12 0;
#X connect 25 0 20 0;
#X connect 26 0 17 0;
#X connect 27 0 5 0;
#X connect 28 0 26 0;
#X connect 29 0 30 0;
#X connect 30 0 9 0;
#X connect 30 1 11 0;
#X connect 30 2 19 0;
#X connect 31 0 9 0;
#X connect 31 1 9 1;
#X connect 32 0 11 0;
#X connect 32 1 11 1;
#X connect 33 0 19 0;
#X connect 33 1 19 1;
#X connect 36 0 6 0;
#X connect 37 0 7 0;
#X connect 38 0 18 0;
#X restore 91 42 pd FM;
#X floatatom 91 16 5 0 0 0 - - -;
#X msg 353 61 \; fc 1 \; m1 1 \; i1 6.2 \; m2 9 \; i2 0.5;
#X obj 122 62 bng 15 250 50 0 empty empty empty 17 7 0 10 -262144 -1
-1;
#X obj 162 87 del 2;
#X msg 353 154 \; fc 1 \; m1 6.2 \; i1 0.5 \; m2 9 \; i2 0.5;
#X obj 91 230 outlet~;
#X msg 162 117 0 100;
#X obj 122 -13 / 2;
#X obj 122 -42 inlet;
#X obj 142 32 r AtkInt;
#X obj 155 179 / 128;
#X obj 155 160 ctlin 1 1;
#X obj 91 196 *~;
#X connect 0 0 1 1;
#X connect 1 0 16 0;
#X connect 2 0 0 0;
#X connect 3 0 1 0;
#X connect 4 0 3 0;
#X connect 6 0 2 0;
#X connect 6 0 7 0;
#X connect 7 0 10 0;
#X connect 10 0 0 0;
#X connect 11 0 4 0;
#X connect 12 0 11 0;
#X connect 13 0 6 0;
#X connect 14 0 16 1;
#X connect 15 0 14 0;
#X connect 16 0 9 0;
#X restore 377 -64 pd ADSRgolpe;
#N canvas 760 467 450 300 ADSRgolpe 0;
#X obj 122 170 line~;
#X obj 90 197 *~;
#X msg 122 121 1 1;
#N canvas 1 150 740 501 FM 0;
#X obj 274 297 *~;
#X obj 409 263 line~;
#X obj 128 403 cos~;
#X obj 128 374 +~;
#X obj 409 240 pack 0 50;
#X floatatom 409 192 5 0 300 0 - - -;
#X obj 128 269 phasor~;
#X obj 273 238 osc~;
#X floatatom 218 38 4 0 15 0 - - -;
#X obj 128 155 *;
#X text 251 38 carrier;
#X obj 273 157 *;
#X floatatom 353 40 4 0 15 0 - - -;
#X text 388 39 mod 1;
#X text 450 192 index1;
#X obj 517 299 *~;
#X obj 650 264 line~;
#X obj 650 241 pack 0 50;
#X obj 516 253 osc~;
#X obj 516 159 *;
#X floatatom 516 42 4 0 15 0 - - -;
#X text 549 41 mod 2;
#X text 692 192 index2;
#X obj 218 10 r fc;
#X obj 353 10 r m1;
#X obj 516 10 r m2;
#X floatatom 650 191 5 0 300 0 - - -;
#X obj 409 163 r i1;
#X obj 650 162 r i2;
#X obj 31 43 inlet Fundamental;
#X obj 31 74 t f f f;
#X obj 218 82 t b f;
#X obj 353 82 t b f;
#X obj 516 77 t b f;
#X obj 127 437 outlet~;
#X text 172 403 use cos for higher quality results (slower);
#X obj 128 240 line~;
#X obj 273 213 line~;
#X obj 516 213 line~;
#X connect 0 0 3 1;
#X connect 1 0 0 1;
#X connect 2 0 34 0;
#X connect 3 0 2 0;
#X connect 4 0 1 0;
#X connect 5 0 4 0;
#X connect 6 0 3 0;
#X connect 7 0 0 0;
#X connect 8 0 31 0;
#X connect 9 0 36 0;
#X connect 11 0 37 0;
#X connect 12 0 32 0;
#X connect 15 0 3 1;
#X connect 16 0 15 1;
#X connect 17 0 16 0;
#X connect 18 0 15 0;
#X connect 19 0 38 0;
#X connect 20 0 33 0;
#X connect 23 0 8 0;
#X connect 24 0 12 0;
#X connect 25 0 20 0;
#X connect 26 0 17 0;
#X connect 27 0 5 0;
#X connect 28 0 26 0;
#X connect 29 0 30 0;
#X connect 30 0 9 0;
#X connect 30 1 11 0;
#X connect 30 2 19 0;
#X connect 31 0 9 0;
#X connect 31 1 9 1;
#X connect 32 0 11 0;
#X connect 32 1 11 1;
#X connect 33 0 19 0;
#X connect 33 1 19 1;
#X connect 36 0 6 0;
#X connect 37 0 7 0;
#X connect 38 0 18 0;
#X restore 91 76 pd FM;
#X floatatom 91 50 5 0 0 0 - - -;
#X msg 353 61 \; fc 1 \; m1 1 \; i1 6.2 \; m2 9 \; i2 0.5;
#X obj 122 96 bng 15 250 50 0 empty empty empty 17 7 0 10 -262144 -1
-1;
#X obj 162 121 del 2;
#X msg 353 154 \; fc 1 \; m1 6.2 \; i1 0.5 \; m2 9 \; i2 0.5;
#X obj 91 248 outlet~;
#X msg 162 151 0 100;
#X obj 122 21 / 2;
#X obj 122 -8 inlet;
#X obj 152 76 r AtkInt;
#X obj 136 208 / 128;
#X obj 136 189 ctlin 1 1;
#X obj 91 225 *~;
#X connect 0 0 1 1;
#X connect 1 0 16 0;
#X connect 2 0 0 0;
#X connect 3 0 1 0;
#X connect 4 0 3 0;
#X connect 6 0 2 0;
#X connect 6 0 7 0;
#X connect 7 0 10 0;
#X connect 10 0 0 0;
#X connect 11 0 4 0;
#X connect 12 0 11 0;
#X connect 13 0 6 0;
#X connect 14 0 16 1;
#X connect 15 0 14 0;
#X connect 16 0 9 0;
#X restore 377 -45 pd ADSRgolpe;
#N canvas 760 467 450 300 ADSRgolpe 0;
#X obj 122 170 line~;
#X obj 90 197 *~;
#X msg 122 121 1 1;
#N canvas 1 150 740 501 FM 0;
#X obj 274 297 *~;
#X obj 409 263 line~;
#X obj 128 403 cos~;
#X obj 128 374 +~;
#X obj 409 240 pack 0 50;
#X floatatom 409 192 5 0 300 0 - - -;
#X obj 128 269 phasor~;
#X obj 273 238 osc~;
#X floatatom 218 38 4 0 15 0 - - -;
#X obj 128 155 *;
#X text 251 38 carrier;
#X obj 273 157 *;
#X floatatom 353 40 4 0 15 0 - - -;
#X text 388 39 mod 1;
#X text 450 192 index1;
#X obj 517 299 *~;
#X obj 650 264 line~;
#X obj 650 241 pack 0 50;
#X obj 516 253 osc~;
#X obj 516 159 *;
#X floatatom 516 42 4 0 15 0 - - -;
#X text 549 41 mod 2;
#X text 692 192 index2;
#X obj 218 10 r fc;
#X obj 353 10 r m1;
#X obj 516 10 r m2;
#X floatatom 650 191 5 0 300 0 - - -;
#X obj 409 163 r i1;
#X obj 650 162 r i2;
#X obj 31 43 inlet Fundamental;
#X obj 31 74 t f f f;
#X obj 218 82 t b f;
#X obj 353 82 t b f;
#X obj 516 77 t b f;
#X obj 127 437 outlet~;
#X text 172 403 use cos for higher quality results (slower);
#X obj 128 240 line~;
#X obj 273 213 line~;
#X obj 516 213 line~;
#X connect 0 0 3 1;
#X connect 1 0 0 1;
#X connect 2 0 34 0;
#X connect 3 0 2 0;
#X connect 4 0 1 0;
#X connect 5 0 4 0;
#X connect 6 0 3 0;
#X connect 7 0 0 0;
#X connect 8 0 31 0;
#X connect 9 0 36 0;
#X connect 11 0 37 0;
#X connect 12 0 32 0;
#X connect 15 0 3 1;
#X connect 16 0 15 1;
#X connect 17 0 16 0;
#X connect 18 0 15 0;
#X connect 19 0 38 0;
#X connect 20 0 33 0;
#X connect 23 0 8 0;
#X connect 24 0 12 0;
#X connect 25 0 20 0;
#X connect 26 0 17 0;
#X connect 27 0 5 0;
#X connect 28 0 26 0;
#X connect 29 0 30 0;
#X connect 30 0 9 0;
#X connect 30 1 11 0;
#X connect 30 2 19 0;
#X connect 31 0 9 0;
#X connect 31 1 9 1;
#X connect 32 0 11 0;
#X connect 32 1 11 1;
#X connect 33 0 19 0;
#X connect 33 1 19 1;
#X connect 36 0 6 0;
#X connect 37 0 7 0;
#X connect 38 0 18 0;
#X restore 91 76 pd FM;
#X floatatom 91 50 5 0 0 0 - - -;
#X msg 353 61 \; fc 1 \; m1 1 \; i1 6.2 \; m2 9 \; i2 0.5;
#X obj 122 96 bng 15 250 50 0 empty empty empty 17 7 0 10 -262144 -1
-1;
#X obj 162 121 del 2;
#X msg 353 154 \; fc 1 \; m1 6.2 \; i1 0.5 \; m2 9 \; i2 0.5;
#X obj 91 257 outlet~;
#X msg 162 151 0 100;
#X obj 122 21 / 2;
#X obj 122 -8 inlet;
#X obj 148 70 r AtkInt;
#X obj 136 214 / 128;
#X obj 136 195 ctlin 1 1;
#X obj 91 231 *~;
#X connect 0 0 1 1;
#X connect 1 0 16 0;
#X connect 2 0 0 0;
#X connect 3 0 1 0;
#X connect 4 0 3 0;
#X connect 6 0 2 0;
#X connect 6 0 7 0;
#X connect 7 0 10 0;
#X connect 10 0 0 0;
#X connect 11 0 4 0;
#X connect 12 0 11 0;
#X connect 13 0 6 0;
#X connect 14 0 16 1;
#X connect 15 0 14 0;
#X connect 16 0 9 0;
#X restore 377 -23 pd ADSRgolpe;
#N canvas 760 467 450 300 ADSRgolpe 0;
#X obj 122 170 line~;
#X obj 90 197 *~;
#X msg 122 121 1 1;
#N canvas 1 150 740 501 FM 0;
#X obj 274 297 *~;
#X obj 409 263 line~;
#X obj 128 403 cos~;
#X obj 128 374 +~;
#X obj 409 240 pack 0 50;
#X floatatom 409 192 5 0 300 0 - - -;
#X obj 128 269 phasor~;
#X obj 273 238 osc~;
#X floatatom 218 38 4 0 15 0 - - -;
#X obj 128 155 *;
#X text 251 38 carrier;
#X obj 273 157 *;
#X floatatom 353 40 4 0 15 0 - - -;
#X text 388 39 mod 1;
#X text 450 192 index1;
#X obj 517 299 *~;
#X obj 650 264 line~;
#X obj 650 241 pack 0 50;
#X obj 516 253 osc~;
#X obj 516 159 *;
#X floatatom 516 42 4 0 15 0 - - -;
#X text 549 41 mod 2;
#X text 692 192 index2;
#X obj 218 10 r fc;
#X obj 353 10 r m1;
#X obj 516 10 r m2;
#X floatatom 650 191 5 0 300 0 - - -;
#X obj 409 163 r i1;
#X obj 650 162 r i2;
#X obj 31 43 inlet Fundamental;
#X obj 31 74 t f f f;
#X obj 218 82 t b f;
#X obj 353 82 t b f;
#X obj 516 77 t b f;
#X obj 127 437 outlet~;
#X text 172 403 use cos for higher quality results (slower);
#X obj 128 240 line~;
#X obj 273 213 line~;
#X obj 516 213 line~;
#X connect 0 0 3 1;
#X connect 1 0 0 1;
#X connect 2 0 34 0;
#X connect 3 0 2 0;
#X connect 4 0 1 0;
#X connect 5 0 4 0;
#X connect 6 0 3 0;
#X connect 7 0 0 0;
#X connect 8 0 31 0;
#X connect 9 0 36 0;
#X connect 11 0 37 0;
#X connect 12 0 32 0;
#X connect 15 0 3 1;
#X connect 16 0 15 1;
#X connect 17 0 16 0;
#X connect 18 0 15 0;
#X connect 19 0 38 0;
#X connect 20 0 33 0;
#X connect 23 0 8 0;
#X connect 24 0 12 0;
#X connect 25 0 20 0;
#X connect 26 0 17 0;
#X connect 27 0 5 0;
#X connect 28 0 26 0;
#X connect 29 0 30 0;
#X connect 30 0 9 0;
#X connect 30 1 11 0;
#X connect 30 2 19 0;
#X connect 31 0 9 0;
#X connect 31 1 9 1;
#X connect 32 0 11 0;
#X connect 32 1 11 1;
#X connect 33 0 19 0;
#X connect 33 1 19 1;
#X connect 36 0 6 0;
#X connect 37 0 7 0;
#X connect 38 0 18 0;
#X restore 91 76 pd FM;
#X floatatom 91 50 5 0 0 0 - - -;
#X msg 353 61 \; fc 1 \; m1 1 \; i1 6.2 \; m2 9 \; i2 0.5;
#X obj 122 96 bng 15 250 50 0 empty empty empty 17 7 0 10 -262144 -1
-1;
#X obj 162 121 del 2;
#X msg 353 154 \; fc 1 \; m1 6.2 \; i1 0.5 \; m2 9 \; i2 0.5;
#X obj 91 268 outlet~;
#X msg 162 151 0 100;
#X obj 122 21 / 2;
#X obj 122 -8 inlet;
#X obj 163 70 r AtkInt;
#X obj 136 219 / 128;
#X obj 136 200 ctlin 1 1;
#X obj 91 236 *~;
#X connect 0 0 1 1;
#X connect 1 0 16 0;
#X connect 2 0 0 0;
#X connect 3 0 1 0;
#X connect 4 0 3 0;
#X connect 6 0 2 0;
#X connect 6 0 7 0;
#X connect 7 0 10 0;
#X connect 10 0 0 0;
#X connect 11 0 4 0;
#X connect 12 0 11 0;
#X connect 13 0 6 0;
#X connect 14 0 16 1;
#X connect 15 0 14 0;
#X connect 16 0 9 0;
#X restore 377 -1 pd ADSRgolpe;
#X obj 378 69 s~ RecInterno;
#X obj 287 250 s AtkInt;
#X obj 171 177 r~ RecInterno;
#X obj 378 46 *~ 0.05;
#X obj 501 286 cnv 15 148 50 empty empty empty 20 12 0 14 -261234 -66577
0;
#X obj 501 271 cnv 15 148 15 empty empty ClusterIII 20 8 2 12 -1 -262144
0;
#X obj 613 307 bng 15 250 50 0 panA empty empty 17 7 0 10 -262144 -1
-1;
#X obj 630 307 bng 15 250 50 0 panR empty empty 17 7 0 10 -262144 -1
-1;
#X obj 28 96 s panel;
#X floatatom 511 292 5 0 0 1 ActualNote panel -;
#X obj 372 178 r panA;
#X obj 448 218 r panR;
#X obj 583 111 s panelNumVoice;
#X obj 28 -109 f;
#X floatatom 511 314 5 0 0 1 NextNote ctrlsigNota -;
#X obj 265 -109 s ctrlsigNota;
#X obj 230 403 f;
#X obj 230 422 pack \$1 10;
#X obj 230 440 line~;
#X obj 377 442 f;
#X obj 189 -126 + 30;
#N canvas 460 191 452 406 fm 0;
#X obj 95 162 cos~;
#X obj 94 105 phasor~;
#X obj 95 140 +~;
#X obj 153 105 osc~;
#X obj 152 145 *~ 2;
#X obj 152 56 *~ 9.3;
#X obj 94 33 inlet;
#X obj 97 365 outlet~;
#X obj 244 258 vline~;
#X floatatom 302 159 5 0 0 0 - - -;
#X floatatom 337 159 5 0 0 0 - - -;
#X floatatom 267 159 5 0 0 0 - - -;
#X obj 274 110 loadbang;
#X obj 244 160 bng 15 250 50 0 empty empty empty 17 7 0 10 -262144
-1 -1;
#X msg 267 134 10;
#X obj 244 198 pack f f f f;
#X msg 244 225 1 \$2 \, \$3 \$4 \$2;
#X msg 302 134 0;
#X obj 96 225 *~;
#X msg 337 133 3000;
#X obj 226 83 r AtkInt;
#X obj 140 262 / 128;
#X obj 140 243 ctlin 1 1;
#X obj 125 291 f;
#X obj 125 308 pack \$1 10;
#X obj 125 327 line~;
#X obj 97 343 *~;
#X connect 0 0 18 0;
#X connect 1 0 2 0;
#X connect 2 0 0 0;
#X connect 3 0 4 0;
#X connect 4 0 2 1;
#X connect 5 0 3 0;
#X connect 6 0 5 0;
#X connect 6 0 1 0;
#X connect 8 0 18 1;
#X connect 9 0 15 2;
#X connect 10 0 15 3;
#X connect 11 0 15 1;
#X connect 12 0 14 0;
#X connect 12 0 17 0;
#X connect 12 0 19 0;
#X connect 13 0 15 0;
#X connect 13 0 23 0;
#X connect 14 0 11 0;
#X connect 15 0 16 0;
#X connect 16 0 8 0;
#X connect 17 0 9 0;
#X connect 18 0 26 0;
#X connect 19 0 10 0;
#X connect 20 0 13 0;
#X connect 21 0 23 1;
#X connect 22 0 21 0;
#X connect 23 0 24 0;
#X connect 24 0 25 0;
#X connect 25 0 26 1;
#X connect 26 0 7 0;
#X restore 28 139 pd fm;
#N canvas 463 178 452 406 fm 0;
#X obj 95 162 cos~;
#X obj 94 105 phasor~;
#X obj 95 140 +~;
#X obj 153 105 osc~;
#X obj 152 145 *~ 2;
#X obj 152 56 *~ 9.3;
#X obj 94 33 inlet;
#X obj 97 365 outlet~;
#X obj 244 258 vline~;
#X floatatom 302 159 5 0 0 0 - - -;
#X floatatom 337 159 5 0 0 0 - - -;
#X floatatom 267 159 5 0 0 0 - - -;
#X obj 274 110 loadbang;
#X obj 244 160 bng 15 250 50 0 empty empty empty 17 7 0 10 -262144
-1 -1;
#X msg 267 134 10;
#X obj 244 198 pack f f f f;
#X msg 244 225 1 \$2 \, \$3 \$4 \$2;
#X msg 302 134 0;
#X obj 96 225 *~;
#X msg 337 133 3000;
#X obj 226 83 r AtkInt;
#X obj 140 262 / 128;
#X obj 140 243 ctlin 1 1;
#X obj 125 291 f;
#X obj 125 308 pack \$1 10;
#X obj 125 327 line~;
#X obj 97 343 *~;
#X connect 0 0 18 0;
#X connect 1 0 2 0;
#X connect 2 0 0 0;
#X connect 3 0 4 0;
#X connect 4 0 2 1;
#X connect 5 0 3 0;
#X connect 6 0 5 0;
#X connect 6 0 1 0;
#X connect 8 0 18 1;
#X connect 9 0 15 2;
#X connect 10 0 15 3;
#X connect 11 0 15 1;
#X connect 12 0 14 0;
#X connect 12 0 17 0;
#X connect 12 0 19 0;
#X connect 13 0 15 0;
#X connect 13 0 23 0;
#X connect 14 0 11 0;
#X connect 15 0 16 0;
#X connect 16 0 8 0;
#X connect 17 0 9 0;
#X connect 18 0 26 0;
#X connect 19 0 10 0;
#X connect 20 0 13 0;
#X connect 21 0 23 1;
#X connect 22 0 21 0;
#X connect 23 0 24 0;
#X connect 24 0 25 0;
#X connect 25 0 26 1;
#X connect 26 0 7 0;
#X restore 28 160 pd fm;
#N canvas 463 178 452 406 fm 0;
#X obj 95 162 cos~;
#X obj 94 105 phasor~;
#X obj 95 140 +~;
#X obj 153 105 osc~;
#X obj 152 145 *~ 2;
#X obj 152 56 *~ 9.3;
#X obj 94 33 inlet;
#X obj 97 365 outlet~;
#X obj 244 258 vline~;
#X floatatom 302 159 5 0 0 0 - - -;
#X floatatom 337 159 5 0 0 0 - - -;
#X floatatom 267 159 5 0 0 0 - - -;
#X obj 274 110 loadbang;
#X obj 244 160 bng 15 250 50 0 empty empty empty 17 7 0 10 -262144
-1 -1;
#X msg 267 134 10;
#X obj 244 198 pack f f f f;
#X msg 244 225 1 \$2 \, \$3 \$4 \$2;
#X msg 302 134 0;
#X obj 96 225 *~;
#X msg 337 133 3000;
#X obj 226 83 r AtkInt;
#X obj 140 262 / 128;
#X obj 140 243 ctlin 1 1;
#X obj 125 291 f;
#X obj 125 308 pack \$1 10;
#X obj 125 327 line~;
#X obj 97 343 *~;
#X connect 0 0 18 0;
#X connect 1 0 2 0;
#X connect 2 0 0 0;
#X connect 3 0 4 0;
#X connect 4 0 2 1;
#X connect 5 0 3 0;
#X connect 6 0 5 0;
#X connect 6 0 1 0;
#X connect 8 0 18 1;
#X connect 9 0 15 2;
#X connect 10 0 15 3;
#X connect 11 0 15 1;
#X connect 12 0 14 0;
#X connect 12 0 17 0;
#X connect 12 0 19 0;
#X connect 13 0 15 0;
#X connect 13 0 23 0;
#X connect 14 0 11 0;
#X connect 15 0 16 0;
#X connect 16 0 8 0;
#X connect 17 0 9 0;
#X connect 18 0 26 0;
#X connect 19 0 10 0;
#X connect 20 0 13 0;
#X connect 21 0 23 1;
#X connect 22 0 21 0;
#X connect 23 0 24 0;
#X connect 24 0 25 0;
#X connect 25 0 26 1;
#X connect 26 0 7 0;
#X restore 28 181 pd fm;
#X obj 66 197 *~ 0.005;
#X obj 188 570 throw~ MDer;
#X obj 126 569 throw~ MIz;
#X obj 543 -156 notein 1;
#X obj 543 -129 stripnote;
#X obj 543 -97 sel 42;
#X obj 563 -65 sel 43;
#X obj 189 -144 * 20;
#X text 231 -156 MIDI Input;
#X text 602 -150 MIDI INput;
#X text 278 363 MIDI Input;
#X text 340 93 MIDI Input;
#X connect 0 0 75 0;
#X connect 0 1 74 0;
#X connect 1 0 0 0;
#X connect 2 0 1 0;
#X connect 3 0 4 0;
#X connect 4 0 2 0;
#X connect 5 0 6 0;
#X connect 6 0 36 0;
#X connect 7 0 6 0;
#X connect 8 0 6 0;
#X connect 9 0 6 0;
#X connect 10 0 6 0;
#X connect 11 0 6 0;
#X connect 12 0 6 0;
#X connect 13 0 6 0;
#X connect 14 0 16 0;
#X connect 14 0 7 0;
#X connect 14 0 46 0;
#X connect 14 0 71 0;
#X connect 15 0 5 0;
#X connect 15 0 14 0;
#X connect 15 0 45 0;
#X connect 15 0 57 0;
#X connect 16 0 17 0;
#X connect 16 0 8 0;
#X connect 17 0 18 0;
#X connect 17 0 9 0;
#X connect 17 0 47 0;
#X connect 17 0 72 0;
#X connect 18 0 19 0;
#X connect 18 0 10 0;
#X connect 19 0 20 0;
#X connect 19 0 11 0;
#X connect 19 0 48 0;
#X connect 20 0 21 0;
#X connect 20 0 12 0;
#X connect 21 0 13 0;
#X connect 22 0 27 0;
#X connect 23 0 6 1;
#X connect 24 0 23 0;
#X connect 24 0 26 0;
#X connect 24 0 50 0;
#X connect 24 0 62 0;
#X connect 24 0 65 0;
#X connect 24 0 68 0;
#X connect 24 0 22 0;
#X connect 25 0 23 1;
#X connect 25 0 32 0;
#X connect 25 0 26 1;
#X connect 26 0 27 1;
#X connect 27 0 44 0;
#X connect 28 0 30 0;
#X connect 29 0 31 0;
#X connect 30 0 0 0;
#X connect 31 0 28 0;
#X connect 33 0 34 0;
#X connect 33 1 34 1;
#X connect 34 0 35 0;
#X connect 35 0 24 0;
#X connect 36 0 0 0;
#X connect 36 0 0 1;
#X connect 37 0 39 0;
#X connect 37 0 68 1;
#X connect 38 0 37 0;
#X connect 39 0 65 1;
#X connect 40 0 80 0;
#X connect 41 0 40 0;
#X connect 42 0 0 0;
#X connect 43 0 0 1;
#X connect 44 0 36 0;
#X connect 45 0 52 0;
#X connect 46 0 52 0;
#X connect 47 0 52 0;
#X connect 48 0 52 0;
#X connect 51 0 6 0;
#X connect 52 0 49 0;
#X connect 59 0 24 0;
#X connect 60 0 25 0;
#X connect 62 0 15 0;
#X connect 62 0 70 0;
#X connect 65 0 66 0;
#X connect 66 0 67 0;
#X connect 67 0 36 1;
#X connect 68 0 44 1;
#X connect 69 0 62 1;
#X connect 69 0 64 0;
#X connect 70 0 73 0;
#X connect 71 0 73 0;
#X connect 72 0 73 0;
#X connect 73 0 6 0;
#X connect 76 0 77 0;
#X connect 76 1 77 1;
#X connect 77 0 78 0;
#X connect 77 0 79 0;
#X connect 78 0 25 0;
#X connect 79 0 25 0;
#X connect 80 0 69 0;
#X coords 0 -1 1 1 150 67 1 500 270;
#X restore 110 156 pd instrumentoCluster;
#N canvas 0 462 722 585 instrumentoClusterII 0;
#X floatatom 47 138 5 0 0 0 - - -;
#N canvas 344 446 450 300 pha 0;
#X obj 128 19 inlet;
#X obj 128 55 mtof;
#X obj 128 82 phasor~;
#X obj 128 115 -~ 0.5;
#X obj 127 154 outlet~;
#X connect 0 0 1 0;
#X connect 1 0 2 0;
#X connect 2 0 3 0;
#X connect 3 0 4 0;
#X restore 47 162 pd pha;
#N canvas 347 433 450 300 pha 0;
#X obj 128 19 inlet;
#X obj 128 55 mtof;
#X obj 128 82 phasor~;
#X obj 128 115 -~ 0.5;
#X obj 127 154 outlet~;
#X connect 0 0 1 0;
#X connect 1 0 2 0;
#X connect 2 0 3 0;
#X connect 3 0 4 0;
#X restore 61 183 pd pha;
#N canvas 347 433 450 300 pha 0;
#X obj 128 19 inlet;
#X obj 128 55 mtof;
#X obj 128 82 phasor~;
#X obj 128 115 -~ 0.5;
#X obj 127 154 outlet~;
#X connect 0 0 1 0;
#X connect 1 0 2 0;
#X connect 2 0 3 0;
#X connect 3 0 4 0;
#X restore 78 206 pd pha;
#N canvas 347 433 450 300 pha 0;
#X obj 128 19 inlet;
#X obj 128 55 mtof;
#X obj 128 82 phasor~;
#X obj 128 115 -~ 0.5;
#X obj 127 154 outlet~;
#X connect 0 0 1 0;
#X connect 1 0 2 0;
#X connect 2 0 3 0;
#X connect 3 0 4 0;
#X restore 92 227 pd pha;
#N canvas 344 446 450 300 pha 0;
#X obj 128 19 inlet;
#X obj 128 55 mtof;
#X obj 128 82 phasor~;
#X obj 128 115 -~ 0.5;
#X obj 127 154 outlet~;
#X connect 0 0 1 0;
#X connect 1 0 2 0;
#X connect 2 0 3 0;
#X connect 3 0 4 0;
#X restore 110 248 pd pha;
#N canvas 347 433 450 300 pha 0;
#X obj 128 19 inlet;
#X obj 128 55 mtof;
#X obj 128 82 phasor~;
#X obj 128 115 -~ 0.5;
#X obj 127 154 outlet~;
#X connect 0 0 1 0;
#X connect 1 0 2 0;
#X connect 2 0 3 0;
#X connect 3 0 4 0;
#X restore 124 269 pd pha;
#N canvas 347 433 450 300 pha 0;
#X obj 128 19 inlet;
#X obj 128 55 mtof;
#X obj 128 82 phasor~;
#X obj 128 115 -~ 0.5;
#X obj 127 154 outlet~;
#X connect 0 0 1 0;
#X connect 1 0 2 0;
#X connect 2 0 3 0;
#X connect 3 0 4 0;
#X restore 141 292 pd pha;
#N canvas 347 433 450 300 pha 0;
#X obj 128 19 inlet;
#X obj 128 55 mtof;
#X obj 128 82 phasor~;
#X obj 128 115 -~ 0.5;
#X obj 127 154 outlet~;
#X connect 0 0 1 0;
#X connect 1 0 2 0;
#X connect 2 0 3 0;
#X connect 3 0 4 0;
#X restore 155 313 pd pha;
#N canvas 347 433 450 300 pha 0;
#X obj 128 19 inlet;
#X obj 128 55 mtof;
#X obj 128 82 phasor~;
#X obj 128 115 -~ 0.5;
#X obj 127 154 outlet~;
#X connect 0 0 1 0;
#X connect 1 0 2 0;
#X connect 2 0 3 0;
#X connect 3 0 4 0;
#X restore 171 334 pd pha;
#N canvas 347 433 450 300 pha 0;
#X obj 128 19 inlet;
#X obj 128 55 mtof;
#X obj 128 82 phasor~;
#X obj 128 115 -~ 0.5;
#X obj 127 154 outlet~;
#X connect 0 0 1 0;
#X connect 1 0 2 0;
#X connect 2 0 3 0;
#X connect 3 0 4 0;
#X restore 185 355 pd pha;
#X obj 94 162 + 1;
#X obj 114 185 + 1;
#X obj 130 204 + 1;
#X obj 150 227 + 1;
#X obj 163 248 + 1;
#X obj 183 271 + 1;
#X obj 193 292 + 1;
#X obj 213 315 + 1;
#X obj 232 334 + 1;
#N canvas 787 448 450 300 ADSR 0;
#X obj 115 201 vline~;
#X msg 115 174 1 \$2 \, \$3 \$4 \$2;
#X obj 128 140 pack f f f f;
#X floatatom 186 101 5 0 0 0 - - -;
#X floatatom 221 101 5 0 0 0 - - -;
#X floatatom 151 101 5 0 0 0 - - -;
#X msg 211 183 0 \$2;
#X obj 211 141 pack f f;
#X floatatom 256 102 5 0 0 0 - - -;
#X obj 158 52 loadbang;
#X obj 128 102 bng 15 250 50 0 empty empty empty 17 7 0 10 -262144
-1 -1;
#X obj 246 172 bng 15 250 50 0 empty empty empty 17 7 0 10 -262144
-1 -1;
#X msg 256 74 200;
#X msg 186 76 0.5;
#X obj 118 20 inlet;
#X obj 262 20 inlet;
#X obj 121 238 outlet~;
#X msg 151 76 9000;
#X msg 221 75 5000;
#X connect 0 0 16 0;
#X connect 1 0 0 0;
#X connect 2 0 1 0;
#X connect 3 0 2 2;
#X connect 4 0 2 3;
#X connect 5 0 2 1;
#X connect 6 0 0 0;
#X connect 7 0 6 0;
#X connect 8 0 7 1;
#X connect 9 0 17 0;
#X connect 9 0 13 0;
#X connect 9 0 18 0;
#X connect 9 0 12 0;
#X connect 10 0 2 0;
#X connect 11 0 7 0;
#X connect 12 0 8 0;
#X connect 13 0 3 0;
#X connect 14 0 10 0;
#X connect 15 0 11 0;
#X connect 17 0 5 0;
#X connect 18 0 4 0;
#X restore 303 357 pd ADSR;
#X obj 372 318 bng 15 250 50 0 empty empty empty 17 7 0 10 -262144
-1 -1;
#X obj 411 325 bng 15 250 50 0 empty empty empty 17 7 0 10 -262144
-1 -1;
#X obj 94 382 *~;
#X obj 94 401 lop~ 1000;
#X msg 397 401 1000;
#X msg 398 423 800;
#X msg 396 450 500;
#X msg 393 473 400;
#X obj 361 247 r ba;
#X obj 420 276 r b;
#N canvas 780 467 450 300 ADSR 0;
#X obj 115 201 vline~;
#X floatatom 186 101 5 0 0 0 - - -;
#X floatatom 221 101 5 0 0 0 - - -;
#X floatatom 151 101 5 0 0 0 - - -;
#X msg 211 183 0 \$2;
#X obj 211 141 pack f f;
#X floatatom 256 102 5 0 0 0 - - -;
#X obj 158 52 loadbang;
#X obj 128 102 bng 15 250 50 0 empty empty empty 17 7 0 10 -262144
-1 -1;
#X obj 246 172 bng 15 250 50 0 empty empty empty 17 7 0 10 -262144
-1 -1;
#X msg 256 74 200;
#X obj 118 20 inlet;
#X obj 262 20 inlet;
#X obj 121 238 outlet~;
#X obj 128 140 pack f f f f;
#X msg 272 157 1 \$2 \, \$3 \$4 \$2;
#X msg 180 221 1 \$2 \, \$3 \$4 \$2 \, 0 20000 110;
#X msg 151 76 10000;
#X msg 221 75 10000;
#X msg 186 76 0.8;
#X connect 0 0 13 0;
#X connect 1 0 14 2;
#X connect 2 0 14 3;
#X connect 3 0 14 1;
#X connect 4 0 0 0;
#X connect 5 0 4 0;
#X connect 6 0 5 1;
#X connect 7 0 17 0;
#X connect 7 0 19 0;
#X connect 7 0 18 0;
#X connect 7 0 10 0;
#X connect 8 0 14 0;
#X connect 9 0 5 0;
#X connect 10 0 6 0;
#X connect 11 0 8 0;
#X connect 12 0 9 0;
#X connect 14 0 15 0;
#X connect 15 0 0 0;
#X connect 16 0 0 0;
#X connect 17 0 3 0;
#X connect 18 0 2 0;
#X connect 19 0 1 0;
#X restore 372 377 pd ADSR;
#X obj 363 138 notein 1;
#X obj 363 165 stripnote;
#X obj 363 197 sel 37;
#X obj 187 30 / 128;
#X obj 187 48 * 100;
#X obj 187 66 + 20;
#X obj 187 11 ctlin 6 1;
#X obj 179 429 / 128;
#X obj 94 427 *~;
#X obj 179 410 ctlin 2 1;
#X floatatom 201 460 5 0 0 0 - - -;
#X obj 155 429 * 1;
#X obj 501 116 cnv 15 148 40 empty empty empty 20 12 0 14 -261234 -66577
0;
#X obj 501 101 cnv 15 148 15 empty empty ClusterI 20 8 2 12 -1 -262144
0;
#X obj 613 123 bng 15 250 50 0 panAb empty empty 17 7 0 10 -262144
-1 -1;
#X obj 630 123 bng 15 250 50 0 panRb empty empty 17 7 0 10 -262144
-1 -1;
#X floatatom 519 122 5 0 0 1 Freq. ctrlsigNotaII -;
#X obj 187 142 s ctrlsigNotaII;
#X obj 458 308 r panRb;
#X obj 415 257 r panAb;
#X obj 434 137 notein 1;
#X obj 434 164 stripnote;
#X obj 434 196 sel 42;
#X obj 457 238 sel 43;
#X obj 63 478 throw~ reverbI;
#X obj 78 499 throw~ reverbD;
#X obj 187 121 line;
#X obj 187 102 pack f 20;
#X text 227 42 MIDI Input;
#X connect 0 0 1 0;
#X connect 0 0 11 0;
#X connect 1 0 23 0;
#X connect 2 0 23 0;
#X connect 3 0 23 0;
#X connect 4 0 23 0;
#X connect 5 0 23 0;
#X connect 6 0 23 0;
#X connect 7 0 23 0;
#X connect 8 0 23 0;
#X connect 9 0 23 0;
#X connect 10 0 23 0;
#X connect 11 0 2 0;
#X connect 11 0 12 0;
#X connect 12 0 3 0;
#X connect 12 0 13 0;
#X connect 13 0 14 0;
#X connect 13 0 4 0;
#X connect 14 0 5 0;
#X connect 14 0 15 0;
#X connect 15 0 16 0;
#X connect 15 0 6 0;
#X connect 16 0 7 0;
#X connect 16 0 17 0;
#X connect 17 0 18 0;
#X connect 17 0 8 0;
#X connect 18 0 9 0;
#X connect 18 0 19 0;
#X connect 19 0 10 0;
#X connect 20 0 23 1;
#X connect 21 0 31 0;
#X connect 22 0 31 1;
#X connect 23 0 24 0;
#X connect 24 0 40 0;
#X connect 25 0 24 1;
#X connect 26 0 24 1;
#X connect 27 0 24 1;
#X connect 28 0 24 1;
#X connect 29 0 21 0;
#X connect 30 0 22 0;
#X connect 31 0 23 1;
#X connect 32 0 33 0;
#X connect 32 1 33 1;
#X connect 33 0 34 0;
#X connect 34 0 21 0;
#X connect 35 0 36 0;
#X connect 36 0 37 0;
#X connect 37 0 59 0;
#X connect 38 0 35 0;
#X connect 39 0 43 0;
#X connect 40 0 56 0;
#X connect 40 0 57 0;
#X connect 41 0 39 0;
#X connect 43 0 40 1;
#X connect 43 0 42 0;
#X connect 50 0 22 0;
#X connect 51 0 21 0;
#X connect 52 0 53 0;
#X connect 52 1 53 1;
#X connect 53 0 54 0;
#X connect 53 0 55 0;
#X connect 54 0 22 0;
#X connect 55 0 22 0;
#X connect 58 0 49 0;
#X connect 58 0 0 0;
#X connect 59 0 58 0;
#X coords 0 -1 1 1 150 57 1 500 100;
#X restore 110 11 pd instrumentoClusterII;
#N canvas 606 394 744 653 instrumentoClusterIII 0;
#X floatatom 12 17 5 0 0 0 - - -;
#N canvas 347 433 450 300 pha 0;
#X obj 128 19 inlet;
#X obj 128 55 mtof;
#X obj 128 82 phasor~;
#X obj 128 115 -~ 0.5;
#X obj 127 154 outlet~;
#X connect 0 0 1 0;
#X connect 1 0 2 0;
#X connect 2 0 3 0;
#X connect 3 0 4 0;
#X restore 12 41 pd pha;
#N canvas 347 433 450 300 pha 0;
#X obj 128 19 inlet;
#X obj 128 55 mtof;
#X obj 128 82 phasor~;
#X obj 128 115 -~ 0.5;
#X obj 127 154 outlet~;
#X connect 0 0 1 0;
#X connect 1 0 2 0;
#X connect 2 0 3 0;
#X connect 3 0 4 0;
#X restore 26 62 pd pha;
#N canvas 347 433 450 300 pha 0;
#X obj 128 19 inlet;
#X obj 128 55 mtof;
#X obj 128 82 phasor~;
#X obj 128 115 -~ 0.5;
#X obj 127 154 outlet~;
#X connect 0 0 1 0;
#X connect 1 0 2 0;
#X connect 2 0 3 0;
#X connect 3 0 4 0;
#X restore 43 85 pd pha;
#N canvas 347 433 450 300 pha 0;
#X obj 128 19 inlet;
#X obj 128 55 mtof;
#X obj 128 82 phasor~;
#X obj 128 115 -~ 0.5;
#X obj 127 154 outlet~;
#X connect 0 0 1 0;
#X connect 1 0 2 0;
#X connect 2 0 3 0;
#X connect 3 0 4 0;
#X restore 57 106 pd pha;
#N canvas 347 433 450 300 pha 0;
#X obj 128 19 inlet;
#X obj 128 55 mtof;
#X obj 128 82 phasor~;
#X obj 128 115 -~ 0.5;
#X obj 127 154 outlet~;
#X connect 0 0 1 0;
#X connect 1 0 2 0;
#X connect 2 0 3 0;
#X connect 3 0 4 0;
#X restore 75 127 pd pha;
#N canvas 788 449 450 300 ADSR 0;
#X obj 115 201 vline~;
#X msg 115 174 1 \$2 \, \$3 \$4 \$2;
#X obj 128 140 pack f f f f;
#X floatatom 186 101 5 0 0 0 - - -;
#X floatatom 221 101 5 0 0 0 - - -;
#X floatatom 151 101 5 0 0 0 - - -;
#X msg 211 183 0 \$2;
#X obj 211 141 pack f f;
#X floatatom 256 102 5 0 0 0 - - -;
#X obj 158 52 loadbang;
#X obj 128 102 bng 15 250 50 0 empty empty empty 17 7 0 10 -262144
-1 -1;
#X obj 246 172 bng 15 250 50 0 empty empty empty 17 7 0 10 -262144
-1 -1;
#X msg 256 74 200;
#X msg 186 76 0.5;
#X obj 118 20 inlet;
#X obj 262 20 inlet;
#X obj 121 238 outlet~;
#X msg 151 76 9000;
#X msg 221 75 7000;
#X connect 0 0 16 0;
#X connect 1 0 0 0;
#X connect 2 0 1 0;
#X connect 3 0 2 2;
#X connect 4 0 2 3;
#X connect 5 0 2 1;
#X connect 6 0 0 0;
#X connect 7 0 6 0;
#X connect 8 0 7 1;
#X connect 9 0 17 0;
#X connect 9 0 13 0;
#X connect 9 0 18 0;
#X connect 9 0 12 0;
#X connect 10 0 2 0;
#X connect 11 0 7 0;
#X connect 12 0 8 0;
#X connect 13 0 3 0;
#X connect 14 0 10 0;
#X connect 15 0 11 0;
#X connect 17 0 5 0;
#X connect 18 0 4 0;
#X restore 303 243 pd ADSR;
#X obj 303 204 bng 15 250 50 0 empty empty empty 17 7 0 10 -262144
-1 -1;
#X obj 342 202 bng 15 250 50 0 empty empty empty 17 7 0 10 -262144
-1 -1;
#X obj 59 261 *~;
#X obj 294 474 freeverb~;
#X obj 59 280 lop~ 1000;
#X msg 151 283 1000;
#X msg 152 304 800;
#X msg 152 324 500;
#X msg 152 346 400;
#X obj 303 16 notein 1;
#X obj 303 43 stripnote;
#X obj 303 62 sel 38;
#X obj 59 383 delwrite~ minicluster 100;
#X floatatom 376 225 5 0 0 0 - - -;
#X obj 376 249 osc~;
#X obj 377 275 *~;
#X floatatom 430 259 5 0 25 0 - - -;
#X obj 377 303 +~;
#X obj 430 287 *~ 2;
#X obj 376 323 vd~ minicluster;
#X floatatom 217 209 5 0 0 0 - - -;
#X obj 217 166 loadbang;
#X msg 217 230 roomsize \$1;
#X msg 217 187 0.9;
#X obj 59 41 + 1;
#X obj 79 63 + 1;
#X obj 95 85 + 1;
#X obj 115 106 + 1;
#X text 109 38 suma de 1 o 2;
#X obj 228 16 ctlin 7 1;
#X obj 228 34 / 127;
#X obj 228 52 * 80;
#X obj 228 70 + 20;
#X obj 402 366 / 128;
#X floatatom 378 388 5 0 0 0 - - -;
#X obj 378 366 * 2;
#X obj 402 347 ctlin 3 1;
#X obj 378 405 pack \$1 10;
#X obj 378 423 line~;
#X floatatom 459 397 5 0 0 0 - - -;
#X msg 430 223 2;
#X obj 430 141 loadbang;
#X msg 376 178 12;
#X obj 213 87 f;
#X obj 501 116 cnv 15 148 63 empty empty empty 20 12 0 14 -261234 -66577
0;
#X obj 501 101 cnv 15 148 15 empty empty ClusterII 20 8 2 12 -1 -262144
0;
#X obj 613 137 bng 15 250 50 0 panAc empty empty 17 7 0 10 -262144
-1 -1;
#X obj 630 137 bng 15 250 50 0 panRc empty empty 17 7 0 10 -262144
-1 -1;
#X floatatom 511 122 5 0 0 1 MidiBaseNote panelIII -;
#X floatatom 510 143 5 5 200 1 ModFreq. - -;
#X obj 613 159 tgl 15 0 empty empty Random -37 7 2 10 -262144 -1 -1
0 1;
#X obj 320 139 r panAc;
#X obj 441 185 r panRc;
#X obj 252 114 s ctrlsigNotaIII;
#X obj 213 141 s panelIII;
#X obj 613 227 metro 80;
#X obj 613 252 random 25;
#X obj 613 284 +;
#X obj 293 544 throw~ MIz;
#X obj 345 598 throw~ MDer;
#X obj 378 15 notein 1;
#X obj 378 42 stripnote;
#X obj 378 61 sel 42;
#X obj 307 439 *~;
#X obj 294 516 *~ 1;
#X obj 344 516 *~ 1;
#X text 568 47 el freq es inutil al parecer;
#X text 660 136 key on/off;
#X text 227 0 MIDI Input .......................;
#X connect 0 0 1 0;
#X connect 0 0 31 0;
#X connect 1 0 9 0;
#X connect 2 0 9 0;
#X connect 3 0 9 0;
#X connect 4 0 9 0;
#X connect 5 0 9 0;
#X connect 6 0 9 1;
#X connect 7 0 6 0;
#X connect 7 0 50 0;
#X connect 8 0 6 1;
#X connect 9 0 11 0;
#X connect 10 0 71 0;
#X connect 10 1 72 0;
#X connect 11 0 19 0;
#X connect 12 0 11 1;
#X connect 13 0 11 1;
#X connect 14 0 11 1;
#X connect 15 0 11 1;
#X connect 16 0 17 0;
#X connect 16 1 17 1;
#X connect 17 0 18 0;
#X connect 18 0 7 0;
#X connect 20 0 21 0;
#X connect 21 0 22 0;
#X connect 22 0 24 0;
#X connect 23 0 22 1;
#X connect 23 0 25 0;
#X connect 24 0 26 0;
#X connect 25 0 24 1;
#X connect 26 0 70 0;
#X connect 27 0 29 0;
#X connect 28 0 30 0;
#X connect 29 0 10 0;
#X connect 30 0 27 0;
#X connect 31 0 2 0;
#X connect 31 0 32 0;
#X connect 32 0 3 0;
#X connect 32 0 33 0;
#X connect 33 0 4 0;
#X connect 33 0 34 0;
#X connect 34 0 5 0;
#X connect 36 0 37 0;
#X connect 37 0 38 0;
#X connect 38 0 39 0;
#X connect 39 0 50 1;
#X connect 39 0 60 0;
#X connect 39 0 64 1;
#X connect 40 0 42 0;
#X connect 40 0 46 0;
#X connect 41 0 44 0;
#X connect 42 0 41 0;
#X connect 43 0 40 0;
#X connect 44 0 45 0;
#X connect 45 0 70 1;
#X connect 47 0 23 0;
#X connect 48 0 47 0;
#X connect 48 0 49 0;
#X connect 49 0 20 0;
#X connect 49 0 56 0;
#X connect 50 0 0 0;
#X connect 50 0 61 0;
#X connect 56 0 20 0;
#X connect 57 0 62 0;
#X connect 58 0 7 0;
#X connect 59 0 8 0;
#X connect 62 0 63 0;
#X connect 63 0 64 0;
#X connect 64 0 0 0;
#X connect 67 0 68 0;
#X connect 67 1 68 1;
#X connect 68 0 69 0;
#X connect 69 0 8 0;
#X connect 70 0 10 0;
#X connect 70 0 10 1;
#X connect 71 0 65 0;
#X connect 72 0 66 0;
#X coords 0 -1 1 1 150 80 1 500 100;
#X restore 110 72 pd instrumentoClusterIII;
#N canvas 505 399 534 351 radio 0;
#X floatatom 259 88 5 0 0 0 - - -;
#X obj 259 112 osc~;
#X obj 260 138 *~;
#X floatatom 313 122 5 0 0 0 - - -;
#X obj 260 166 +~;
#X obj 313 150 *~ 2;
#X obj 259 189 vd~ fm;
#X obj 259 42 loadbang;
#X msg 259 65 150;
#X msg 313 66 2;
#X obj 44 253 phasor~;
#X obj 45 274 delwrite~ fm 100;
#X obj 44 233 mtof;
#X floatatom 44 208 5 0 0 0 - - -;
#X obj 44 159 random 100;
#X obj 44 181 + 100;
#X obj 44 134 metro 50;
#X obj 152 5 notein 1;
#X obj 152 64 sel 41;
#X obj 152 32 stripnote;
#X obj 259 217 *~;
#X obj 399 221 / 128;
#X obj 399 202 ctlin 4 1;
#X obj 232 265 throw~ MIz;
#X obj 317 266 throw~ MDer;
#X obj 401 101 cnv 15 83 15 empty empty Foldover 20 8 2 12 -1 -262144
0;
#X obj 401 117 cnv 15 83 42 empty empty empty 20 12 0 14 -261234 -66577
0;
#X obj 403 119 tgl 15 0 empty empty RandomOn/Off 17 7 2 10 -262144
-1 -1 0 1;
#X obj 403 139 bng 15 250 50 0 empty empty Stop 17 7 2 10 -262144 -1
-1;
#X msg 399 171 0;
#X obj 399 240 * 0.1;
#X text 70 9 MIDI Input;
#X text 440 225 MIDI Input;
#X connect 0 0 1 0;
#X connect 1 0 2 0;
#X connect 2 0 4 0;
#X connect 3 0 2 1;
#X connect 3 0 5 0;
#X connect 4 0 6 0;
#X connect 5 0 4 1;
#X connect 6 0 20 0;
#X connect 7 0 9 0;
#X connect 7 0 8 0;
#X connect 8 0 0 0;
#X connect 9 0 3 0;
#X connect 10 0 11 0;
#X connect 12 0 10 0;
#X connect 13 0 12 0;
#X connect 14 0 15 0;
#X connect 15 0 13 0;
#X connect 16 0 14 0;
#X connect 17 0 19 0;
#X connect 17 1 19 1;
#X connect 18 0 27 0;
#X connect 19 0 18 0;
#X connect 20 0 23 0;
#X connect 20 0 24 0;
#X connect 21 0 30 0;
#X connect 22 0 21 0;
#X connect 27 0 16 0;
#X connect 28 0 29 0;
#X connect 29 0 21 0;
#X connect 30 0 20 1;
#X coords 0 -1 1 1 85 60 1 400 100;
#X restore 23 135 pd radio;
#N canvas 286 355 564 336 acordes 0;
#X obj 115 68 mtof;
#X obj 107 97 noise~;
#X obj 108 162 bp~;
#X msg 115 44 57;
#X msg 233 78 61;
#X msg 344 74 64;
#X obj 233 102 mtof;
#X obj 344 96 mtof;
#X obj 226 162 bp~;
#X obj 337 162 bp~;
#X obj 225 129 noise~;
#X obj 336 117 noise~;
#X floatatom 391 146 5 0 0 0 - - -;
#X msg 391 123 225;
#X obj 225 254 throw~ reverbI;
#X obj 225 272 throw~ reverbD;
#X obj 233 10 loadbang;
#X msg 300 207 1 5000;
#X obj 300 230 line~;
#X obj 225 226 *~;
#X obj 225 203 *~ 5;
#X obj 401 201 cnv 15 83 15 empty empty Ped 20 8 2 12 -1 -262144 0
;
#X obj 401 217 cnv 15 83 42 empty empty empty 20 12 0 14 -261234 -66577
0;
#X obj 413 227 bng 15 250 50 0 empty empty On 17 7 2 8 -262144 -1 -1
;
#X obj 453 227 bng 15 250 50 0 empty empty Off 17 7 2 8 -262144 -1
-1;
#X msg 354 207 0 5000;
#X connect 0 0 2 1;
#X connect 1 0 2 0;
#X connect 2 0 20 0;
#X connect 3 0 0 0;
#X connect 4 0 6 0;
#X connect 5 0 7 0;
#X connect 6 0 8 1;
#X connect 7 0 9 1;
#X connect 8 0 20 0;
#X connect 9 0 20 0;
#X connect 10 0 8 0;
#X connect 11 0 9 0;
#X connect 12 0 9 2;
#X connect 12 0 8 2;
#X connect 12 0 2 2;
#X connect 13 0 12 0;
#X connect 16 0 3 0;
#X connect 16 0 4 0;
#X connect 16 0 5 0;
#X connect 16 0 13 0;
#X connect 17 0 18 0;
#X connect 18 0 19 1;
#X connect 19 0 14 0;
#X connect 19 0 15 0;
#X connect 20 0 19 0;
#X connect 23 0 17 0;
#X connect 24 0 25 0;
#X connect 25 0 18 0;
#X coords 0 -1 1 1 85 60 1 400 200;
#X restore 22 11 pd acordes;
#N canvas 762 480 450 300 grabar 0;
#X obj 139 84 inlet~;
#X obj 194 84 inlet~;
#X obj 139 190 writesf~ 2;
#X msg 139 244 start;
#X msg 139 264 stop;
#X obj 138 134 *~ 0.1;
#X obj 195 134 *~ 0.1;
#X obj 251 151 cnv 15 98 15 empty empty Record 50 8 2 14 -1 -262144
0;
#X obj 251 167 cnv 15 98 62 empty empty empty 20 12 0 14 -262144 -66577
0;
#X obj 260 173 bng 15 250 50 0 empty empty Arm_record 17 7 2 10 -262144
-1 -1;
#X obj 260 190 bng 15 250 50 0 empty empty Start 17 7 2 10 -258113
-1 -1;
#X obj 260 207 bng 15 250 50 0 empty empty Stop 17 7 2 10 -191407 -1
-1;
#X msg 139 224 open Now_B.wav;
#X connect 0 0 5 0;
#X connect 1 0 6 0;
#X connect 3 0 2 0;
#X connect 4 0 2 0;
#X connect 5 0 2 0;
#X connect 6 0 2 1;
#X connect 9 0 12 0;
#X connect 10 0 3 0;
#X connect 11 0 4 0;
#X connect 12 0 2 0;
#X coords 0 -1 1 1 100 80 1 250 150;
#X restore 160 228 pd grabar;
#X obj 22 261 *~ 1;
#X obj 23 223 catch~ MIz;
#X obj 79 242 catch~ MDer;
#X obj 79 261 *~ 1;
#N canvas 668 356 498 387 sine 0;
#X obj 278 25 bng 15 250 50 0 empty empty empty 17 7 0 10 -262144 -1
-1;
#N canvas 420 467 450 300 osc 0;
#X obj 80 109 osc~;
#X obj 81 163 *~;
#X obj 149 147 osc~;
#X floatatom 80 88 5 0 0 0 - - -;
#X floatatom 149 128 5 0 0 0 - - -;
#X obj 149 88 * 0.01;
#X obj 80 67 + 400;
#X obj 80 195 outlet~;
#X floatatom 209 23 5 0 0 0 controlRange controlRange -;
#X floatatom 303 42 5 0 0 0 controlRangeIndividual controlRangeIndividual
-;
#X obj 80 47 random 300;
#X floatatom 164 3 5 0 0 0 rand rand -;
#X obj 80 4 r bang;
#X obj 149 108 + 0.2;
#X obj 149 68 random 300;
#X connect 0 0 1 0;
#X connect 1 0 7 0;
#X connect 2 0 1 1;
#X connect 3 0 0 0;
#X connect 4 0 2 0;
#X connect 5 0 13 0;
#X connect 6 0 3 0;
#X connect 8 0 6 1;
#X connect 9 0 6 1;
#X connect 10 0 6 0;
#X connect 11 0 10 1;
#X connect 12 0 10 0;
#X connect 12 0 14 0;
#X connect 13 0 4 0;
#X connect 14 0 5 0;
#X restore 88 123 pd osc;
#X obj 101 176 *~ 0.2;
#X obj 347 47 s controlRange;
#X floatatom 347 27 5 100 1000 0 - - -;
#X floatatom 348 69 5 100 2000 0 - - -;
#X obj 348 89 s rand;
#X obj 278 53 s bang;
#N canvas 420 467 450 300 osc 0;
#X obj 80 109 osc~;
#X obj 81 163 *~;
#X obj 149 147 osc~;
#X floatatom 80 88 5 0 0 0 - - -;
#X floatatom 149 128 5 0 0 0 - - -;
#X obj 149 88 * 0.01;
#X obj 80 67 + 400;
#X obj 80 195 outlet~;
#X floatatom 209 23 5 0 0 0 controlRange controlRange -;
#X floatatom 303 42 5 0 0 0 controlRangeIndividual controlRangeIndividual
-;
#X obj 80 47 random 300;
#X floatatom 164 3 5 0 0 0 rand rand -;
#X obj 80 4 r bang;
#X obj 149 108 + 0.2;
#X obj 149 68 random 300;
#X connect 0 0 1 0;
#X connect 1 0 7 0;
#X connect 2 0 1 1;
#X connect 3 0 0 0;
#X connect 4 0 2 0;
#X connect 5 0 13 0;
#X connect 6 0 3 0;
#X connect 8 0 6 1;
#X connect 9 0 6 1;
#X connect 10 0 6 0;
#X connect 11 0 10 1;
#X connect 12 0 10 0;
#X connect 12 0 14 0;
#X connect 13 0 4 0;
#X connect 14 0 5 0;
#X restore 130 123 pd osc;
#N canvas 420 467 450 300 osc 0;
#X obj 80 109 osc~;
#X obj 81 163 *~;
#X obj 149 147 osc~;
#X floatatom 80 88 5 0 0 0 - - -;
#X floatatom 149 128 5 0 0 0 - - -;
#X obj 149 88 * 0.01;
#X obj 80 67 + 400;
#X obj 80 195 outlet~;
#X floatatom 209 23 5 0 0 0 controlRange controlRange -;
#X floatatom 303 42 5 0 0 0 controlRangeIndividual controlRangeIndividual
-;
#X obj 80 47 random 300;
#X floatatom 164 3 5 0 0 0 rand rand -;
#X obj 80 4 r bang;
#X obj 149 108 + 0.2;
#X obj 149 68 random 300;
#X connect 0 0 1 0;
#X connect 1 0 7 0;
#X connect 2 0 1 1;
#X connect 3 0 0 0;
#X connect 4 0 2 0;
#X connect 5 0 13 0;
#X connect 6 0 3 0;
#X connect 8 0 6 1;
#X connect 9 0 6 1;
#X connect 10 0 6 0;
#X connect 11 0 10 1;
#X connect 12 0 10 0;
#X connect 12 0 14 0;
#X connect 13 0 4 0;
#X connect 14 0 5 0;
#X restore 172 123 pd osc;
#N canvas 420 467 450 300 osc 0;
#X obj 80 109 osc~;
#X obj 81 163 *~;
#X obj 149 147 osc~;
#X floatatom 80 88 5 0 0 0 - - -;
#X floatatom 149 128 5 0 0 0 - - -;
#X obj 149 88 * 0.01;
#X obj 80 67 + 400;
#X obj 80 195 outlet~;
#X floatatom 209 23 5 0 0 0 controlRange controlRange -;
#X floatatom 303 42 5 0 0 0 controlRangeIndividual controlRangeIndividual
-;
#X obj 80 47 random 300;
#X floatatom 164 3 5 0 0 0 rand rand -;
#X obj 80 4 r bang;
#X obj 149 108 + 0.2;
#X obj 149 68 random 300;
#X connect 0 0 1 0;
#X connect 1 0 7 0;
#X connect 2 0 1 1;
#X connect 3 0 0 0;
#X connect 4 0 2 0;
#X connect 5 0 13 0;
#X connect 6 0 3 0;
#X connect 8 0 6 1;
#X connect 9 0 6 1;
#X connect 10 0 6 0;
#X connect 11 0 10 1;
#X connect 12 0 10 0;
#X connect 12 0 14 0;
#X connect 13 0 4 0;
#X connect 14 0 5 0;
#X restore 214 123 pd osc;
#N canvas 420 467 450 300 osc 0;
#X obj 80 109 osc~;
#X obj 81 163 *~;
#X obj 149 147 osc~;
#X floatatom 80 88 5 0 0 0 - - -;
#X floatatom 149 128 5 0 0 0 - - -;
#X obj 149 88 * 0.01;
#X obj 80 67 + 400;
#X obj 80 195 outlet~;
#X floatatom 209 23 5 0 0 0 controlRange controlRange -;
#X floatatom 303 42 5 0 0 0 controlRangeIndividual controlRangeIndividual
-;
#X obj 80 47 random 300;
#X floatatom 164 3 5 0 0 0 rand rand -;
#X obj 80 4 r bang;
#X obj 149 108 + 0.2;
#X obj 149 68 random 300;
#X connect 0 0 1 0;
#X connect 1 0 7 0;
#X connect 2 0 1 1;
#X connect 3 0 0 0;
#X connect 4 0 2 0;
#X connect 5 0 13 0;
#X connect 6 0 3 0;
#X connect 8 0 6 1;
#X connect 9 0 6 1;
#X connect 10 0 6 0;
#X connect 11 0 10 1;
#X connect 12 0 10 0;
#X connect 12 0 14 0;
#X connect 13 0 4 0;
#X connect 14 0 5 0;
#X restore 257 123 pd osc;
#N canvas 420 467 450 300 osc 0;
#X obj 80 109 osc~;
#X obj 81 163 *~;
#X obj 149 147 osc~;
#X floatatom 80 88 5 0 0 0 - - -;
#X floatatom 149 128 5 0 0 0 - - -;
#X obj 149 88 * 0.01;
#X obj 80 67 + 400;
#X obj 80 195 outlet~;
#X floatatom 209 23 5 0 0 0 controlRange controlRange -;
#X floatatom 303 42 5 0 0 0 controlRangeIndividual controlRangeIndividual
-;
#X obj 80 47 random 300;
#X floatatom 164 3 5 0 0 0 rand rand -;
#X obj 80 4 r bang;
#X obj 149 108 + 0.2;
#X obj 149 68 random 300;
#X connect 0 0 1 0;
#X connect 1 0 7 0;
#X connect 2 0 1 1;
#X connect 3 0 0 0;
#X connect 4 0 2 0;
#X connect 5 0 13 0;
#X connect 6 0 3 0;
#X connect 8 0 6 1;
#X connect 9 0 6 1;
#X connect 10 0 6 0;
#X connect 11 0 10 1;
#X connect 12 0 10 0;
#X connect 12 0 14 0;
#X connect 13 0 4 0;
#X connect 14 0 5 0;
#X restore 299 123 pd osc;
#N canvas 420 467 450 300 osc 0;
#X obj 80 109 osc~;
#X obj 81 163 *~;
#X obj 149 147 osc~;
#X floatatom 80 88 5 0 0 0 - - -;
#X floatatom 149 128 5 0 0 0 - - -;
#X obj 149 88 * 0.01;
#X obj 80 67 + 400;
#X obj 80 195 outlet~;
#X floatatom 209 23 5 0 0 0 controlRange controlRange -;
#X floatatom 303 42 5 0 0 0 controlRangeIndividual controlRangeIndividual
-;
#X obj 80 47 random 300;
#X floatatom 164 3 5 0 0 0 rand rand -;
#X obj 80 4 r bang;
#X obj 149 108 + 0.2;
#X obj 149 68 random 300;
#X connect 0 0 1 0;
#X connect 1 0 7 0;
#X connect 2 0 1 1;
#X connect 3 0 0 0;
#X connect 4 0 2 0;
#X connect 5 0 13 0;
#X connect 6 0 3 0;
#X connect 8 0 6 1;
#X connect 9 0 6 1;
#X connect 10 0 6 0;
#X connect 11 0 10 1;
#X connect 12 0 10 0;
#X connect 12 0 14 0;
#X connect 13 0 4 0;
#X connect 14 0 5 0;
#X restore 189 174 pd osc;
#X obj 202 207 *~ 0.2;
#N canvas 420 467 450 300 osc 0;
#X obj 80 109 osc~;
#X obj 81 163 *~;
#X obj 149 147 osc~;
#X floatatom 80 88 5 0 0 0 - - -;
#X floatatom 149 128 5 0 0 0 - - -;
#X obj 149 88 * 0.01;
#X obj 80 67 + 400;
#X obj 80 195 outlet~;
#X floatatom 209 23 5 0 0 0 controlRange controlRange -;
#X floatatom 303 42 5 0 0 0 controlRangeIndividual controlRangeIndividual
-;
#X obj 80 47 random 300;
#X floatatom 164 3 5 0 0 0 rand rand -;
#X obj 80 4 r bang;
#X obj 149 108 + 0.2;
#X obj 149 68 random 300;
#X connect 0 0 1 0;
#X connect 1 0 7 0;
#X connect 2 0 1 1;
#X connect 3 0 0 0;
#X connect 4 0 2 0;
#X connect 5 0 13 0;
#X connect 6 0 3 0;
#X connect 8 0 6 1;
#X connect 9 0 6 1;
#X connect 10 0 6 0;
#X connect 11 0 10 1;
#X connect 12 0 10 0;
#X connect 12 0 14 0;
#X connect 13 0 4 0;
#X connect 14 0 5 0;
#X restore 231 174 pd osc;
#N canvas 420 467 450 300 osc 0;
#X obj 80 109 osc~;
#X obj 81 163 *~;
#X obj 149 147 osc~;
#X floatatom 80 88 5 0 0 0 - - -;
#X floatatom 149 128 5 0 0 0 - - -;
#X obj 149 88 * 0.01;
#X obj 80 67 + 400;
#X obj 80 195 outlet~;
#X floatatom 209 23 5 0 0 0 controlRange controlRange -;
#X floatatom 303 42 5 0 0 0 controlRangeIndividual controlRangeIndividual
-;
#X obj 80 47 random 300;
#X floatatom 164 3 5 0 0 0 rand rand -;
#X obj 80 4 r bang;
#X obj 149 108 + 0.2;
#X obj 149 68 random 300;
#X connect 0 0 1 0;
#X connect 1 0 7 0;
#X connect 2 0 1 1;
#X connect 3 0 0 0;
#X connect 4 0 2 0;
#X connect 5 0 13 0;
#X connect 6 0 3 0;
#X connect 8 0 6 1;
#X connect 9 0 6 1;
#X connect 10 0 6 0;
#X connect 11 0 10 1;
#X connect 12 0 10 0;
#X connect 12 0 14 0;
#X connect 13 0 4 0;
#X connect 14 0 5 0;
#X restore 273 174 pd osc;
#N canvas 420 467 450 300 osc 0;
#X obj 80 109 osc~;
#X obj 81 163 *~;
#X obj 149 147 osc~;
#X floatatom 80 88 5 0 0 0 - - -;
#X floatatom 149 128 5 0 0 0 - - -;
#X obj 149 88 * 0.01;
#X obj 80 67 + 400;
#X obj 80 195 outlet~;
#X floatatom 209 23 5 0 0 0 controlRange controlRange -;
#X floatatom 303 42 5 0 0 0 controlRangeIndividual controlRangeIndividual
-;
#X obj 80 47 random 300;
#X floatatom 164 3 5 0 0 0 rand rand -;
#X obj 80 4 r bang;
#X obj 149 108 + 0.2;
#X obj 149 68 random 300;
#X connect 0 0 1 0;
#X connect 1 0 7 0;
#X connect 2 0 1 1;
#X connect 3 0 0 0;
#X connect 4 0 2 0;
#X connect 5 0 13 0;
#X connect 6 0 3 0;
#X connect 8 0 6 1;
#X connect 9 0 6 1;
#X connect 10 0 6 0;
#X connect 11 0 10 1;
#X connect 12 0 10 0;
#X connect 12 0 14 0;
#X connect 13 0 4 0;
#X connect 14 0 5 0;
#X restore 315 174 pd osc;
#N canvas 420 467 450 300 osc 0;
#X obj 80 109 osc~;
#X obj 81 163 *~;
#X obj 149 147 osc~;
#X floatatom 80 88 5 0 0 0 - - -;
#X floatatom 149 128 5 0 0 0 - - -;
#X obj 149 88 * 0.01;
#X obj 80 67 + 400;
#X obj 80 195 outlet~;
#X floatatom 209 23 5 0 0 0 controlRange controlRange -;
#X floatatom 303 42 5 0 0 0 controlRangeIndividual controlRangeIndividual
-;
#X obj 80 47 random 300;
#X floatatom 164 3 5 0 0 0 rand rand -;
#X obj 80 4 r bang;
#X obj 149 108 + 0.2;
#X obj 149 68 random 300;
#X connect 0 0 1 0;
#X connect 1 0 7 0;
#X connect 2 0 1 1;
#X connect 3 0 0 0;
#X connect 4 0 2 0;
#X connect 5 0 13 0;
#X connect 6 0 3 0;
#X connect 8 0 6 1;
#X connect 9 0 6 1;
#X connect 10 0 6 0;
#X connect 11 0 10 1;
#X connect 12 0 10 0;
#X connect 12 0 14 0;
#X connect 13 0 4 0;
#X connect 14 0 5 0;
#X restore 358 174 pd osc;
#N canvas 420 467 450 300 osc 0;
#X obj 80 109 osc~;
#X obj 81 163 *~;
#X obj 149 147 osc~;
#X floatatom 80 88 5 0 0 0 - - -;
#X floatatom 149 128 5 0 0 0 - - -;
#X obj 149 88 * 0.01;
#X obj 80 67 + 400;
#X obj 80 195 outlet~;
#X floatatom 209 23 5 0 0 0 controlRange controlRange -;
#X floatatom 303 42 5 0 0 0 controlRangeIndividual controlRangeIndividual
-;
#X obj 80 47 random 300;
#X floatatom 164 3 5 0 0 0 rand rand -;
#X obj 80 4 r bang;
#X obj 149 108 + 0.2;
#X obj 149 68 random 300;
#X connect 0 0 1 0;
#X connect 1 0 7 0;
#X connect 2 0 1 1;
#X connect 3 0 0 0;
#X connect 4 0 2 0;
#X connect 5 0 13 0;
#X connect 6 0 3 0;
#X connect 8 0 6 1;
#X connect 9 0 6 1;
#X connect 10 0 6 0;
#X connect 11 0 10 1;
#X connect 12 0 10 0;
#X connect 12 0 14 0;
#X connect 13 0 4 0;
#X connect 14 0 5 0;
#X restore 400 174 pd osc;
#N canvas 420 467 450 300 osc 0;
#X obj 80 109 osc~;
#X obj 81 163 *~;
#X obj 149 147 osc~;
#X floatatom 80 88 5 0 0 0 - - -;
#X floatatom 149 128 5 0 0 0 - - -;
#X obj 149 88 * 0.01;
#X obj 80 67 + 400;
#X obj 80 195 outlet~;
#X floatatom 209 23 5 0 0 0 controlRange controlRange -;
#X floatatom 303 42 5 0 0 0 controlRangeIndividual controlRangeIndividual
-;
#X obj 80 47 random 300;
#X floatatom 164 3 5 0 0 0 rand rand -;
#X obj 80 4 r bang;
#X obj 149 108 + 0.2;
#X obj 149 68 random 300;
#X connect 0 0 1 0;
#X connect 1 0 7 0;
#X connect 2 0 1 1;
#X connect 3 0 0 0;
#X connect 4 0 2 0;
#X connect 5 0 13 0;
#X connect 6 0 3 0;
#X connect 8 0 6 1;
#X connect 9 0 6 1;
#X connect 10 0 6 0;
#X connect 11 0 10 1;
#X connect 12 0 10 0;
#X connect 12 0 14 0;
#X connect 13 0 4 0;
#X connect 14 0 5 0;
#X restore 13 35 pd osc;
#X obj 26 88 *~ 0.2;
#N canvas 420 467 450 300 osc 0;
#X obj 80 109 osc~;
#X obj 81 163 *~;
#X obj 149 147 osc~;
#X floatatom 80 88 5 0 0 0 - - -;
#X floatatom 149 128 5 0 0 0 - - -;
#X obj 149 88 * 0.01;
#X obj 80 67 + 400;
#X obj 80 195 outlet~;
#X floatatom 209 23 5 0 0 0 controlRange controlRange -;
#X floatatom 303 42 5 0 0 0 controlRangeIndividual controlRangeIndividual
-;
#X obj 80 47 random 300;
#X floatatom 164 3 5 0 0 0 rand rand -;
#X obj 80 4 r bang;
#X obj 149 108 + 0.2;
#X obj 149 68 random 300;
#X connect 0 0 1 0;
#X connect 1 0 7 0;
#X connect 2 0 1 1;
#X connect 3 0 0 0;
#X connect 4 0 2 0;
#X connect 5 0 13 0;
#X connect 6 0 3 0;
#X connect 8 0 6 1;
#X connect 9 0 6 1;
#X connect 10 0 6 0;
#X connect 11 0 10 1;
#X connect 12 0 10 0;
#X connect 12 0 14 0;
#X connect 13 0 4 0;
#X connect 14 0 5 0;
#X restore 55 35 pd osc;
#N canvas 420 467 450 300 osc 0;
#X obj 80 109 osc~;
#X obj 81 163 *~;
#X obj 149 147 osc~;
#X floatatom 80 88 5 0 0 0 - - -;
#X floatatom 149 128 5 0 0 0 - - -;
#X obj 149 88 * 0.01;
#X obj 80 67 + 400;
#X obj 80 195 outlet~;
#X floatatom 209 23 5 0 0 0 controlRange controlRange -;
#X floatatom 303 42 5 0 0 0 controlRangeIndividual controlRangeIndividual
-;
#X obj 80 47 random 300;
#X floatatom 164 3 5 0 0 0 rand rand -;
#X obj 80 4 r bang;
#X obj 149 108 + 0.2;
#X obj 149 68 random 300;
#X connect 0 0 1 0;
#X connect 1 0 7 0;
#X connect 2 0 1 1;
#X connect 3 0 0 0;
#X connect 4 0 2 0;
#X connect 5 0 13 0;
#X connect 6 0 3 0;
#X connect 8 0 6 1;
#X connect 9 0 6 1;
#X connect 10 0 6 0;
#X connect 11 0 10 1;
#X connect 12 0 10 0;
#X connect 12 0 14 0;
#X connect 13 0 4 0;
#X connect 14 0 5 0;
#X restore 97 35 pd osc;
#N canvas 420 467 450 300 osc 0;
#X obj 80 109 osc~;
#X obj 81 163 *~;
#X obj 149 147 osc~;
#X floatatom 80 88 5 0 0 0 - - -;
#X floatatom 149 128 5 0 0 0 - - -;
#X obj 149 88 * 0.01;
#X obj 80 67 + 400;
#X obj 80 195 outlet~;
#X floatatom 209 23 5 0 0 0 controlRange controlRange -;
#X floatatom 303 42 5 0 0 0 controlRangeIndividual controlRangeIndividual
-;
#X obj 80 47 random 300;
#X floatatom 164 3 5 0 0 0 rand rand -;
#X obj 80 4 r bang;
#X obj 149 108 + 0.2;
#X obj 149 68 random 300;
#X connect 0 0 1 0;
#X connect 1 0 7 0;
#X connect 2 0 1 1;
#X connect 3 0 0 0;
#X connect 4 0 2 0;
#X connect 5 0 13 0;
#X connect 6 0 3 0;
#X connect 8 0 6 1;
#X connect 9 0 6 1;
#X connect 10 0 6 0;
#X connect 11 0 10 1;
#X connect 12 0 10 0;
#X connect 12 0 14 0;
#X connect 13 0 4 0;
#X connect 14 0 5 0;
#X restore 139 35 pd osc;
#N canvas 420 467 450 300 osc 0;
#X obj 80 109 osc~;
#X obj 81 163 *~;
#X obj 149 147 osc~;
#X floatatom 80 88 5 0 0 0 - - -;
#X floatatom 149 128 5 0 0 0 - - -;
#X obj 149 88 * 0.01;
#X obj 80 67 + 400;
#X obj 80 195 outlet~;
#X floatatom 209 23 5 0 0 0 controlRange controlRange -;
#X floatatom 303 42 5 0 0 0 controlRangeIndividual controlRangeIndividual
-;
#X obj 80 47 random 300;
#X floatatom 164 3 5 0 0 0 rand rand -;
#X obj 80 4 r bang;
#X obj 149 108 + 0.2;
#X obj 149 68 random 300;
#X connect 0 0 1 0;
#X connect 1 0 7 0;
#X connect 2 0 1 1;
#X connect 3 0 0 0;
#X connect 4 0 2 0;
#X connect 5 0 13 0;
#X connect 6 0 3 0;
#X connect 8 0 6 1;
#X connect 9 0 6 1;
#X connect 10 0 6 0;
#X connect 11 0 10 1;
#X connect 12 0 10 0;
#X connect 12 0 14 0;
#X connect 13 0 4 0;
#X connect 14 0 5 0;
#X restore 182 35 pd osc;
#N canvas 420 467 450 300 osc 0;
#X obj 80 109 osc~;
#X obj 81 163 *~;
#X obj 149 147 osc~;
#X floatatom 80 88 5 0 0 0 - - -;
#X floatatom 149 128 5 0 0 0 - - -;
#X obj 149 88 * 0.01;
#X obj 80 67 + 400;
#X obj 80 195 outlet~;
#X floatatom 209 23 5 0 0 0 controlRange controlRange -;
#X floatatom 303 42 5 0 0 0 controlRangeIndividual controlRangeIndividual
-;
#X obj 80 47 random 300;
#X floatatom 164 3 5 0 0 0 rand rand -;
#X obj 80 4 r bang;
#X obj 149 108 + 0.2;
#X obj 149 68 random 300;
#X connect 0 0 1 0;
#X connect 1 0 7 0;
#X connect 2 0 1 1;
#X connect 3 0 0 0;
#X connect 4 0 2 0;
#X connect 5 0 13 0;
#X connect 6 0 3 0;
#X connect 8 0 6 1;
#X connect 9 0 6 1;
#X connect 10 0 6 0;
#X connect 11 0 10 1;
#X connect 12 0 10 0;
#X connect 12 0 14 0;
#X connect 13 0 4 0;
#X connect 14 0 5 0;
#X restore 224 35 pd osc;
#X obj 25 113 *~ 0.5;
#N canvas 464 467 450 300 adsr 0;
#X obj 125 211 vline~;
#X floatatom 196 111 5 0 0 0 - - -;
#X floatatom 231 111 5 0 0 0 - - -;
#X floatatom 161 111 5 0 0 0 - - -;
#X msg 221 193 0 \$2;
#X obj 221 151 pack f f;
#X floatatom 266 112 5 0 0 0 - - -;
#X obj 168 62 loadbang;
#X obj 138 112 bng 15 250 50 0 empty empty empty 17 7 0 10 -262144
-1 -1;
#X obj 256 182 bng 15 250 50 0 empty empty empty 17 7 0 10 -262144
-1 -1;
#X msg 196 86 0.5;
#X obj 131 248 outlet~;
#X obj 138 150 pack f f f f;
#X msg 125 177 1 \$2 \, \$3 \$4 \$2;
#X obj 128 30 r bang;
#X obj 272 30 r bang2;
#X msg 161 86 1000;
#X msg 231 85 1000;
#X msg 266 84 3000;
#X connect 0 0 11 0;
#X connect 1 0 12 2;
#X connect 2 0 12 3;
#X connect 3 0 12 1;
#X connect 4 0 0 0;
#X connect 5 0 4 0;
#X connect 6 0 5 1;
#X connect 7 0 16 0;
#X connect 7 0 10 0;
#X connect 7 0 17 0;
#X connect 7 0 18 0;
#X connect 8 0 12 0;
#X connect 9 0 5 0;
#X connect 10 0 1 0;
#X connect 12 0 13 0;
#X connect 13 0 0 0;
#X connect 14 0 8 0;
#X connect 15 0 9 0;
#X connect 16 0 3 0;
#X connect 17 0 2 0;
#X connect 18 0 6 0;
#X restore 40 225 pd adsr;
#X obj 24 252 *~;
#X obj 100 247 *~;
#X obj 201 282 *~;
#X obj 278 74 bng 15 250 50 0 empty empty empty 17 7 0 10 -262144 -1
-1;
#X obj 278 102 s bang2;
#N canvas 466 467 450 300 adsr 0;
#X obj 125 211 vline~;
#X floatatom 196 111 5 0 0 0 - - -;
#X floatatom 231 111 5 0 0 0 - - -;
#X floatatom 161 111 5 0 0 0 - - -;
#X msg 221 193 0 \$2;
#X obj 221 151 pack f f;
#X floatatom 266 112 5 0 0 0 - - -;
#X obj 168 62 loadbang;
#X obj 138 112 bng 15 250 50 0 empty empty empty 17 7 0 10 -262144
-1 -1;
#X obj 256 182 bng 15 250 50 0 empty empty empty 17 7 0 10 -262144
-1 -1;
#X msg 196 86 0.5;
#X obj 131 248 outlet~;
#X obj 138 150 pack f f f f;
#X msg 125 177 1 \$2 \, \$3 \$4 \$2;
#X obj 128 30 r bang;
#X obj 272 30 r bang2;
#X msg 161 86 1000;
#X msg 231 85 1000;
#X msg 266 84 3000;
#X connect 0 0 11 0;
#X connect 1 0 12 2;
#X connect 2 0 12 3;
#X connect 3 0 12 1;
#X connect 4 0 0 0;
#X connect 5 0 4 0;
#X connect 6 0 5 1;
#X connect 7 0 16 0;
#X connect 7 0 10 0;
#X connect 7 0 17 0;
#X connect 7 0 18 0;
#X connect 8 0 12 0;
#X connect 9 0 5 0;
#X connect 10 0 1 0;
#X connect 12 0 13 0;
#X connect 13 0 0 0;
#X connect 14 0 8 0;
#X connect 15 0 9 0;
#X connect 16 0 3 0;
#X connect 17 0 2 0;
#X connect 18 0 6 0;
#X restore 217 257 pd adsr;
#N canvas 466 467 450 300 adsr 0;
#X obj 125 211 vline~;
#X floatatom 196 111 5 0 0 0 - - -;
#X floatatom 231 111 5 0 0 0 - - -;
#X floatatom 161 111 5 0 0 0 - - -;
#X msg 221 193 0 \$2;
#X obj 221 151 pack f f;
#X floatatom 266 112 5 0 0 0 - - -;
#X obj 168 62 loadbang;
#X obj 138 112 bng 15 250 50 0 empty empty empty 17 7 0 10 -262144
-1 -1;
#X obj 256 182 bng 15 250 50 0 empty empty empty 17 7 0 10 -262144
-1 -1;
#X msg 196 86 0.5;
#X obj 131 248 outlet~;
#X obj 138 150 pack f f f f;
#X msg 125 177 1 \$2 \, \$3 \$4 \$2;
#X obj 128 30 r bang;
#X obj 272 30 r bang2;
#X msg 161 86 1000;
#X msg 231 85 1000;
#X msg 266 84 3000;
#X connect 0 0 11 0;
#X connect 1 0 12 2;
#X connect 2 0 12 3;
#X connect 3 0 12 1;
#X connect 4 0 0 0;
#X connect 5 0 4 0;
#X connect 6 0 5 1;
#X connect 7 0 16 0;
#X connect 7 0 10 0;
#X connect 7 0 17 0;
#X connect 7 0 18 0;
#X connect 8 0 12 0;
#X connect 9 0 5 0;
#X connect 10 0 1 0;
#X connect 12 0 13 0;
#X connect 13 0 0 0;
#X connect 14 0 8 0;
#X connect 15 0 9 0;
#X connect 16 0 3 0;
#X connect 17 0 2 0;
#X connect 18 0 6 0;
#X restore 116 221 pd adsr;
#X obj 301 251 cnv 15 98 15 empty empty SinWave 20 8 2 12 -1 -262144
0;
#X obj 301 267 cnv 15 98 42 empty empty empty 20 12 0 14 -261234 -66577
0;
#X obj 304 271 bng 15 250 50 0 empty empty empty 17 7 0 10 -262144
-1 -1;
#X obj 304 291 bng 15 250 50 0 empty empty empty 17 7 0 10 -262144
-1 -1;
#X obj 326 291 nbx 5 14 -1e+37 1e+37 0 0 empty empty empty 0 -8 0 10
-262144 -1 -1 100 256;
#X obj 326 271 nbx 5 14 -1e+37 1e+37 0 0 empty empty empty 0 -8 0 10
-262144 -1 -1 200 256;
#X msg 362 222 100;
#X msg 398 223 200;
#X obj 380 202 loadbang;
#X obj 25 355 throw~ MIz;
#X obj 201 356 throw~ MDer;
#X obj 100 196 *~ 1;
#X obj 201 232 *~ 1;
#X obj 24 202 *~ 0.8;
#X obj 388 272 vsl 8 30 0.5 2 0 0 empty empty empty 0 -9 0 10 -262144
-1 -1 1933 1;
#X obj 200 316 *~;
#X msg 433 295 25;
#X obj 388 314 pack f f;
#X obj 433 278 loadbang;
#X obj 275 331 line~;
#X obj 24 307 *~;
#X obj 100 324 *~;
#X msg 426 239 1.5;
#X connect 0 0 7 0;
#X connect 1 0 2 0;
#X connect 2 0 47 0;
#X connect 4 0 3 0;
#X connect 5 0 6 0;
#X connect 8 0 2 0;
#X connect 9 0 2 0;
#X connect 10 0 2 0;
#X connect 11 0 2 0;
#X connect 12 0 2 0;
#X connect 13 0 14 0;
#X connect 14 0 48 0;
#X connect 15 0 14 0;
#X connect 16 0 14 0;
#X connect 17 0 14 0;
#X connect 18 0 14 0;
#X connect 19 0 14 0;
#X connect 20 0 21 0;
#X connect 21 0 27 0;
#X connect 22 0 21 0;
#X connect 23 0 21 0;
#X connect 24 0 21 0;
#X connect 25 0 21 0;
#X connect 26 0 21 0;
#X connect 27 0 49 0;
#X connect 28 0 29 1;
#X connect 29 0 56 0;
#X connect 30 0 57 0;
#X connect 31 0 51 0;
#X connect 32 0 33 0;
#X connect 34 0 31 1;
#X connect 35 0 30 1;
#X connect 38 0 7 0;
#X connect 39 0 33 0;
#X connect 40 0 4 0;
#X connect 41 0 5 0;
#X connect 42 0 40 0;
#X connect 43 0 41 0;
#X connect 44 0 42 0;
#X connect 44 0 43 0;
#X connect 44 0 58 0;
#X connect 47 0 30 0;
#X connect 48 0 31 0;
#X connect 49 0 29 0;
#X connect 50 0 53 0;
#X connect 51 0 46 0;
#X connect 52 0 53 1;
#X connect 53 0 55 0;
#X connect 54 0 52 0;
#X connect 55 0 51 1;
#X connect 55 0 56 1;
#X connect 55 0 57 1;
#X connect 56 0 45 0;
#X connect 56 0 46 0;
#X connect 57 0 45 0;
#X connect 58 0 50 0;
#X coords 0 -1 1 1 100 60 1 300 250;
#X restore 8 73 pd sine;
#X text 21 326 Introspeccin II Nostalgia;
#X text 21 337 Composed and programmed by Daniel Daowz;
#X text 22 366 Copyright  2016 Daniel Daowz;
#X text 22 419 Revision #1 February 21 \, 2016;
#X text 23 378 Patch licensed under Creative Commons Attribution-ShareAlike
4 International;
#X connect 7 0 0 0;
#X connect 8 0 7 0;
#X connect 9 0 10 0;
#X connect 10 0 0 1;
