#N canvas 911 373 605 335 10;
#X declare -lib rtc;
#X obj 22 280 output~;
#N canvas 609 406 528 443 Delay&Dry 0;
#X obj 55 86 adc~;
#X obj 55 192 *~;
#X obj 199 150 delread~ del;
#X obj 55 358 delwrite~ del 5000;
#X obj 199 168 *~;
#X obj 238 228 freeverb~;
#X obj 129 227 line~;
#X obj 301 51 cnv 15 83 15 empty empty Dry 20 8 2 14 -1 -262144 0;
#X obj 301 67 cnv 15 83 100 empty empty empty 20 12 0 14 -261234 -66577
0;
#X obj 309 75 vsl 10 80 0 1 0 0 empty empty empty 0 -9 0 10 -260097
-1 -1 0 1;
#X obj 326 193 line~;
#X obj 326 75 vsl 10 80 0 1 0 0 empty empty empty 0 -9 0 10 -262144
-1 -1 3981 1;
#X obj 338 73 nbx 4 14 0 5000 0 0 empty empty empty 0 -8 0 10 -262144
-1 -1 500 256;
#X obj 237 292 outlet~;
#X obj 1 330 outlet~;
#X obj 309 8 loadbang;
#X msg 309 30 0.5;
#X obj 198 195 spigot~;
#X obj 364 51 tgl 15 0 empty empty empty 17 7 0 10 -262144 -1 -1 0
1;
#X obj 237 65 + 0;
#X obj 289 292 outlet~;
#X obj 129 157 + 0;
#X obj 199 362 outlet~;
#X floatatom 101 300 5 0 0 0 - - -;
#X obj 55 272 *~;
#X obj 80 272 osc~;
#X floatatom 80 255 5 0 0 0 - - -;
#X obj 339 120 nbx 4 14 0 5000 0 0 empty empty RingMod 0 -8 2 10 -262144
-1 -1 0 256;
#X obj 141 271 == 0;
#X obj 388 318 throw~ ProcDel1;
#X obj 389 342 throw~ ProcDel2;
#X obj 388 368 throw~ ProcDel3;
#X obj 269 376 +~ 0;
#X obj 20 390 throw~ ToProcess;
#X obj 340 142 bng 15 250 50 0 empty empty 0 17 7 2 10 -262144 -1 -1
;
#X msg 80 140 0;
#X obj 369 8 r ctrl3;
#X obj 369 29 r ctrl4;
#X obj 14 228 s~ clean;
#X obj 415 74 loadbang;
#X msg 415 98 500;
#X obj 129 207 pack \$1 5;
#X obj 326 173 pack \$1 5;
#X connect 0 0 1 0;
#X connect 1 0 24 0;
#X connect 1 0 38 0;
#X connect 2 0 4 0;
#X connect 4 0 17 0;
#X connect 5 0 13 0;
#X connect 5 0 32 0;
#X connect 5 0 29 0;
#X connect 5 1 20 0;
#X connect 5 1 30 0;
#X connect 6 0 1 1;
#X connect 9 0 21 0;
#X connect 10 0 4 1;
#X connect 11 0 42 0;
#X connect 12 0 2 0;
#X connect 15 0 16 0;
#X connect 16 0 9 0;
#X connect 16 0 11 0;
#X connect 17 0 22 0;
#X connect 17 0 32 0;
#X connect 17 1 5 0;
#X connect 17 1 5 1;
#X connect 18 0 19 0;
#X connect 19 0 17 1;
#X connect 21 0 41 0;
#X connect 23 0 25 1;
#X connect 24 0 3 0;
#X connect 24 0 14 0;
#X connect 24 0 33 0;
#X connect 25 0 24 1;
#X connect 26 0 25 0;
#X connect 26 0 28 0;
#X connect 27 0 26 0;
#X connect 28 0 23 0;
#X connect 32 0 31 0;
#X connect 34 0 35 0;
#X connect 35 0 26 0;
#X connect 35 0 27 0;
#X connect 36 0 9 0;
#X connect 37 0 11 0;
#X connect 39 0 40 0;
#X connect 40 0 12 0;
#X connect 41 0 6 0;
#X connect 42 0 10 0;
#X coords 0 -1 1 1 85 118 1 300 50;
#X restore 340 23 pd Delay&Dry;
#N canvas 650 547 485 533 RingMod 0;
#X obj 49 108 catch~ RecordedLoop1;
#N canvas 407 544 450 300 Procesados_RingMod_Freeve 0;
#X obj 131 37 inlet~;
#X obj 219 37 inlet;
#N canvas 480 374 599 419 RingModulation 0;
#X floatatom 258 229 5 0 0 0 - - -;
#X obj 212 201 *~;
#X obj 237 201 osc~;
#X floatatom 237 184 5 0 0 0 - - -;
#X obj 133 204 + 148;
#X obj 133 184 random 1000;
#X obj 173 120 tgl 15 0 empty empty empty 17 7 0 10 -262144 -1 -1 0
1;
#X obj 173 138 metro 100;
#X floatatom 224 121 5 0 0 0 - - -;
#X obj 224 36 inlet;
#X obj 288 36 inlet;
#X obj 327 36 inlet;
#X obj 173 36 inlet;
#X obj 25 45 inlet~;
#X obj 213 253 outlet~;
#X obj 327 240 outlet;
#X connect 0 0 2 1;
#X connect 1 0 14 0;
#X connect 2 0 1 1;
#X connect 3 0 2 0;
#X connect 4 0 15 0;
#X connect 5 0 4 0;
#X connect 6 0 7 0;
#X connect 7 0 5 0;
#X connect 8 0 7 1;
#X connect 9 0 8 0;
#X connect 10 0 3 0;
#X connect 11 0 0 0;
#X connect 12 0 6 0;
#X connect 13 0 1 0;
#X restore 242 178 pd RingModulation;
#X floatatom 341 149 5 0 0 0 - - -;
#X floatatom 316 126 5 0 0 0 - - -;
#X floatatom 291 106 5 0 0 0 - - -;
#X obj 131 84 spigot~;
#X obj 266 37 inlet;
#X obj 130 174 outlet~;
#X obj 242 227 outlet~;
#X obj 309 37 inlet;
#X obj 355 37 inlet;
#X obj 396 37 inlet;
#X obj 341 228 outlet;
#X connect 0 0 6 0;
#X connect 1 0 6 1;
#X connect 2 0 9 0;
#X connect 2 1 13 0;
#X connect 3 0 2 4;
#X connect 4 0 2 3;
#X connect 5 0 2 2;
#X connect 6 0 8 0;
#X connect 6 1 2 0;
#X connect 7 0 2 1;
#X connect 10 0 5 0;
#X connect 11 0 4 0;
#X connect 12 0 3 0;
#X restore 49 220 pd Procesados_RingMod_Freeve;
#X obj 51 352 outlet~;
#X obj 251 51 cnv 15 148 15 empty empty RingMod 20 7 2 14 -1 -262144
0;
#X obj 251 67 cnv 15 148 82 empty empty empty 20 12 0 14 -261234 -66577
0;
#X obj 259 80 hsl 80 10 0 1 0 0 empty empty Pre-processed -2 -8 2 10
-262144 -1 -1 4230 1;
#X obj 256 225 line~;
#X obj 49 128 *~;
#X obj 82 66 + 0;
#X obj 378 51 tgl 15 0 empty empty empty 17 7 0 10 -4034 -1 -1 0 1
;
#X obj 115 161 + 0;
#X obj 256 94 tgl 15 0 empty empty empty 17 7 0 10 -260097 -1 -1 0
1;
#X obj 279 95 nbx 5 14 0 1e+37 0 0 empty empty Randomizer 50 8 2 10
-262144 -1 -1 100 256;
#X obj 257 122 nbx 5 14 0 1e+37 0 0 empty empty Freq 50 8 2 10 -262144
-1 -1 0 256;
#N canvas 216 541 450 300 reverb 0;
#X obj 228 152 freeverb~;
#X msg 336 96 dry \$1;
#X msg 336 78 0.5;
#X obj 336 60 loadbang;
#X obj 189 39 inlet~;
#X obj 228 23 inlet;
#X obj 189 86 spigot~;
#X obj 371 168 outlet~;
#X obj 371 192 outlet~;
#X obj 225 254 throw~ Vol;
#X obj 296 253 throw~ Vol2;
#X obj 144 274 throw~ VolMono;
#X msg 260 95 roomsize \$1;
#X msg 260 77 0.9;
#X obj 224 227 *~ 1;
#X obj 295 232 *~ 1;
#X obj 188 192 +~ 0;
#X obj 112 216 +~ 0;
#X connect 0 0 8 0;
#X connect 0 0 14 0;
#X connect 0 1 7 0;
#X connect 0 1 15 0;
#X connect 1 0 0 0;
#X connect 2 0 1 0;
#X connect 3 0 2 0;
#X connect 3 0 13 0;
#X connect 4 0 6 0;
#X connect 5 0 6 1;
#X connect 6 0 17 0;
#X connect 6 0 16 0;
#X connect 6 1 0 0;
#X connect 6 1 0 1;
#X connect 12 0 0 0;
#X connect 13 0 12 0;
#X connect 14 0 9 0;
#X connect 15 0 10 0;
#X connect 16 0 14 0;
#X connect 17 0 15 0;
#X restore 50 290 pd reverb;
#X obj 89 323 outlet~;
#X obj 143 324 outlet~;
#X obj 333 122 tgl 15 0 empty empty Reverb 17 7 2 10 -262144 -1 -1
1 1;
#X obj 333 273 + 0;
#X obj 141 -7 loadbang;
#X msg 141 37 100;
#X msg 141 16 0.7;
#X msg 368 177 1;
#X obj 368 154 loadbang;
#X obj 238 -3 r VolL1;
#X obj 256 207 pack \$1 5;
#X obj 256 167 *;
#X obj 281 159 r factor1;
#X obj 281 179 t b;
#X connect 0 0 7 0;
#X connect 1 0 14 0;
#X connect 1 1 14 0;
#X connect 1 2 13 0;
#X connect 5 0 26 0;
#X connect 6 0 7 1;
#X connect 7 0 1 0;
#X connect 8 0 1 1;
#X connect 9 0 8 0;
#X connect 10 0 1 2;
#X connect 11 0 10 0;
#X connect 12 0 1 3;
#X connect 13 0 1 4;
#X connect 14 0 15 0;
#X connect 14 1 16 0;
#X connect 17 0 18 0;
#X connect 18 0 14 1;
#X connect 19 0 21 0;
#X connect 19 0 20 0;
#X connect 20 0 12 0;
#X connect 21 0 5 0;
#X connect 22 0 17 0;
#X connect 23 0 22 0;
#X connect 24 0 5 0;
#X connect 25 0 6 0;
#X connect 26 0 25 0;
#X connect 27 0 26 1;
#X connect 27 0 28 0;
#X connect 28 0 26 0;
#X coords 0 -1 1 1 150 100 1 250 50;
#X restore 177 23 pd RingMod;
#N canvas 770 463 472 300 Process 0;
#X obj 21 98 catch~ RecordedLoop2;
#N canvas 161 311 688 490 Procesados---- 0;
#X obj 241 134 fdn~ 64 40000;
#X obj 200 270 *~ 0.5;
#X msg 417 77 linear 32 100 200;
#X msg 417 97 linear 32 90 98;
#X floatatom 288 178 5 0 100 0 - - -;
#X msg 417 117 exponential 32 10 5000;
#X obj 201 95 spigot~;
#X obj 200 44 inlet~;
#X obj 289 43 inlet;
#X obj 376 20 inlet;
#X obj 376 47 route 0 1 2;
#X obj 333 175 *~ 0.4;
#X obj 240 196 *~ 0.4;
#X obj 198 396 outlet~;
#X obj 272 452 outlet~;
#X obj 392 390 throw~ Vol2;
#X obj 282 420 throw~ Vol;
#X obj 133 226 line~;
#X obj 267 221 vcf~;
#X obj 315 242 vcf~;
#X obj 558 16 inlet;
#X obj 613 161 inlet;
#X text 618 140 Q;
#X text 599 17 Freq;
#X obj 314 271 *~ 0.6;
#X obj 266 271 *~ 0.6;
#X obj 599 265 line~;
#X obj 331 305 *~;
#X obj 272 309 *~;
#X obj 348 449 outlet~;
#X obj 613 180 / 5;
#X obj 613 219 + 1;
#X obj 613 199 * 1.7;
#X obj 157 435 throw~ VolMono;
#X text 428 339 Multiply by master vol;
#X text 349 223 Filter;
#X obj 347 374 *~ 1;
#X obj 271 365 *~ 1;
#X obj 199 340 *~ 1;
#X obj 599 247 pack \$1 5;
#X obj 133 208 pack \$1 5;
#X connect 0 0 12 0;
#X connect 0 1 11 0;
#X connect 1 0 38 0;
#X connect 2 0 0 0;
#X connect 3 0 0 0;
#X connect 4 0 18 2;
#X connect 4 0 19 2;
#X connect 5 0 0 0;
#X connect 6 0 1 0;
#X connect 6 1 0 0;
#X connect 7 0 6 0;
#X connect 8 0 6 1;
#X connect 9 0 10 0;
#X connect 10 0 2 0;
#X connect 10 1 3 0;
#X connect 10 2 5 0;
#X connect 11 0 19 0;
#X connect 12 0 18 0;
#X connect 17 0 18 1;
#X connect 17 0 19 1;
#X connect 18 0 25 0;
#X connect 19 0 24 0;
#X connect 20 0 40 0;
#X connect 21 0 4 0;
#X connect 21 0 30 0;
#X connect 24 0 27 0;
#X connect 25 0 28 0;
#X connect 26 0 28 1;
#X connect 26 0 27 1;
#X connect 27 0 36 0;
#X connect 28 0 37 0;
#X connect 30 0 32 0;
#X connect 31 0 39 0;
#X connect 32 0 31 0;
#X connect 36 0 29 0;
#X connect 36 0 15 0;
#X connect 37 0 16 0;
#X connect 37 0 14 0;
#X connect 38 0 13 0;
#X connect 38 0 16 0;
#X connect 38 0 15 0;
#X connect 39 0 26 0;
#X connect 40 0 17 0;
#X restore 21 200 pd Procesados----;
#X obj 251 51 cnv 15 148 15 empty empty Fdn 20 8 2 14 -1 -262144 0
;
#X obj 251 67 cnv 15 148 82 empty empty empty 20 12 0 14 -261234 -66577
0;
#X obj 260 232 line~;
#X obj 21 118 *~;
#X obj 263 80 hsl 80 10 0 1 0 0 empty empty Pre-processed -2 -8 2 10
-262144 -1 -1 0 1;
#X obj 192 3 loadbang;
#X obj 22 256 outlet~;
#X obj 121 258 outlet~;
#X obj 258 110 hsl 128 10 80 5000 0 0 empty empty FiltFreq -2 -8 2
10 -262144 -1 -1 7619 1;
#X obj 258 134 hsl 128 10 0 4 0 0 empty empty FiltQ -2 -8 2 10 -262144
-1 -1 7200 1;
#X obj 375 51 tgl 15 0 empty empty empty 17 7 0 10 -4034 -1 -1 1 1
;
#X obj 309 93 hradio 12 1 0 3 empty empty Mode 40 6 2 10 -262144 -1
-1 0;
#X obj 45 66 + 0;
#X obj 70 124 + 0;
#X msg 192 117 0;
#X obj 403 93 r FiltFr;
#X obj 404 117 r FiltQ;
#X msg 192 21 0.7;
#X msg 375 20 1;
#X obj 100 40 r VolL2;
#X obj 260 214 pack \$1 5;
#X obj 260 172 *;
#X obj 288 172 r factor2;
#X obj 288 192 t b;
#X connect 0 0 5 0;
#X connect 1 0 8 0;
#X connect 1 1 9 0;
#X connect 4 0 5 1;
#X connect 5 0 1 0;
#X connect 6 0 23 0;
#X connect 7 0 19 0;
#X connect 7 0 16 0;
#X connect 7 0 20 0;
#X connect 10 0 1 3;
#X connect 11 0 1 4;
#X connect 12 0 14 0;
#X connect 13 0 15 0;
#X connect 14 0 1 1;
#X connect 15 0 1 2;
#X connect 16 0 11 0;
#X connect 17 0 10 0;
#X connect 18 0 11 0;
#X connect 19 0 6 0;
#X connect 20 0 12 0;
#X connect 21 0 6 0;
#X connect 22 0 4 0;
#X connect 23 0 22 0;
#X connect 24 0 23 1;
#X connect 24 0 25 0;
#X connect 25 0 23 0;
#X coords 0 -1 1 1 150 100 1 250 50;
#X restore 177 143 pd Process;
#N canvas 158 422 826 392 Procesados---- 0;
#X obj 241 134 fdn~ 64 40000;
#X obj 200 293 throw~ Vol;
#X msg 417 77 linear 32 100 200;
#X msg 417 97 linear 32 90 98;
#X msg 417 117 exponential 32 10 5000;
#X obj 201 110 spigot~;
#X obj 201 33 inlet~;
#X obj 177 351 outlet~;
#X obj 286 351 outlet~;
#X msg 425 151 linear 64 100 200;
#X msg 425 171 linear 64 50 55;
#X obj 315 293 throw~ Vol2;
#X obj 162 185 throw~ VolMono;
#X obj 161 154 *~ 0.5;
#X obj 200 270 *~ 0.3;
#X obj 315 271 *~ 0.3;
#X msg 425 191 exponential 32 10 50;
#X obj 109 117 spigot~;
#X obj 110 62 inlet~;
#X obj 108 172 *~ 0.5;
#X obj 34 117 spigot~;
#X obj 35 62 inlet~;
#X obj 33 172 *~ 0.5;
#X obj 376 47 route 0 1 2 3 4 5;
#X obj 601 51 cnv 15 128 15 empty empty Process-del 20 8 2 14 -1 -262144
0;
#X obj 601 67 cnv 15 128 22 empty empty empty 20 12 0 14 -261234 -66577
0;
#X obj 703 51 tgl 15 0 empty empty empty 17 7 0 10 -4034 -1 -1 1 1
;
#X obj 612 71 hradio 12 1 0 6 empty empty empty 0 -8 0 10 -262144 -1
-1 4;
#X obj 501 26 + 0;
#X obj 289 43 + 0;
#X obj 35 40 catch~ ProcDel1;
#X obj 109 5 catch~ ProcDel2;
#X obj 202 10 catch~ ProcDel3;
#X obj 201 60 *~ 1;
#X obj 110 87 *~ 1;
#X obj 35 88 *~ 1;
#X obj 108 246 throw~ Vol2;
#X obj 33 246 throw~ Vol;
#X obj 612 3 loadbang;
#X msg 612 22 4;
#X msg 703 25 1;
#X connect 0 0 14 0;
#X connect 0 1 15 0;
#X connect 2 0 0 0;
#X connect 3 0 0 0;
#X connect 4 0 0 0;
#X connect 5 0 13 0;
#X connect 5 1 0 0;
#X connect 6 0 33 0;
#X connect 9 0 0 0;
#X connect 10 0 0 0;
#X connect 13 0 12 0;
#X connect 14 0 1 0;
#X connect 14 0 7 0;
#X connect 15 0 8 0;
#X connect 15 0 11 0;
#X connect 16 0 0 0;
#X connect 17 0 19 0;
#X connect 18 0 34 0;
#X connect 19 0 36 0;
#X connect 20 0 22 0;
#X connect 21 0 35 0;
#X connect 22 0 37 0;
#X connect 23 0 2 0;
#X connect 23 1 3 0;
#X connect 23 2 4 0;
#X connect 23 3 9 0;
#X connect 23 4 10 0;
#X connect 23 5 16 0;
#X connect 26 0 28 0;
#X connect 27 0 23 0;
#X connect 28 0 29 0;
#X connect 29 0 5 1;
#X connect 29 0 17 1;
#X connect 29 0 20 1;
#X connect 30 0 35 0;
#X connect 31 0 34 0;
#X connect 32 0 33 0;
#X connect 33 0 5 0;
#X connect 34 0 17 0;
#X connect 35 0 20 0;
#X connect 38 0 39 0;
#X connect 38 0 40 0;
#X connect 39 0 27 0;
#X connect 40 0 26 0;
#X coords 0 -1 1 1 130 40 1 600 50;
#X restore 429 66 pd Procesados----;
#N canvas 270 403 838 404 Procesados---- 0;
#X obj 115 134 fdn~ 64 40000;
#X obj 74 293 throw~ Vol;
#X msg 291 77 linear 32 100 200;
#X msg 291 97 linear 32 90 98;
#X msg 291 117 exponential 32 10 5000;
#X obj 75 95 spigot~;
#X obj 74 23 inlet~;
#X obj 51 351 outlet~;
#X obj 160 351 outlet~;
#X msg 299 151 linear 64 100 200;
#X msg 299 171 linear 64 50 55;
#X obj 189 293 throw~ Vol2;
#X obj 36 185 throw~ VolMono;
#X obj 35 126 *~ 0.5;
#X obj 74 215 *~ 0.3;
#X obj 189 216 *~ 0.3;
#X msg 299 191 exponential 32 10 50;
#X obj 250 47 route 0 1 2 3 4 5;
#X obj 501 51 cnv 15 128 15 empty empty Process 20 8 2 14 -1 -262144
0;
#X obj 501 67 cnv 15 128 22 empty empty empty 20 12 0 14 -261234 -66577
0;
#X obj 603 51 tgl 15 0 empty empty empty 17 7 0 10 -4034 -1 -1 1 1
;
#X obj 512 71 hradio 12 1 0 6 empty empty empty 0 -8 0 10 -262144 -1
-1 4;
#X obj 161 64 + 0;
#X obj 149 17 catch~ ToProcess;
#X obj 75 59 *~ 1;
#X obj 462 154 loadbang;
#X msg 603 171 1;
#X msg 512 117 4;
#X connect 0 0 14 0;
#X connect 0 1 15 0;
#X connect 2 0 0 0;
#X connect 3 0 0 0;
#X connect 4 0 0 0;
#X connect 5 0 13 0;
#X connect 5 1 0 0;
#X connect 6 0 24 0;
#X connect 9 0 0 0;
#X connect 10 0 0 0;
#X connect 13 0 12 0;
#X connect 14 0 7 0;
#X connect 14 0 1 0;
#X connect 15 0 11 0;
#X connect 15 0 8 0;
#X connect 16 0 0 0;
#X connect 17 0 2 0;
#X connect 17 1 3 0;
#X connect 17 2 4 0;
#X connect 17 3 9 0;
#X connect 17 4 10 0;
#X connect 17 5 16 0;
#X connect 20 0 22 0;
#X connect 21 0 17 0;
#X connect 22 0 5 1;
#X connect 23 0 24 0;
#X connect 24 0 5 0;
#X connect 25 0 10 0;
#X connect 25 0 26 0;
#X connect 25 0 27 0;
#X connect 26 0 20 0;
#X connect 27 0 21 0;
#X coords 0 -1 1 1 130 40 1 500 50;
#X restore 429 23 pd Procesados----;
#N canvas 477 695 450 385 MasterVol 0;
#X obj 301 51 cnv 15 88 15 empty empty Vol 20 8 2 14 -1 -262144 0;
#X obj 301 67 cnv 15 88 102 empty empty empty 20 12 0 14 -261234 -66577
0;
#X obj 310 78 vsl 10 80 0 1 0 0 empty empty empty 0 -9 0 10 -159808
-1 -1 4230 1;
#X obj 323 78 vsl 10 80 0 1 0 0 empty empty empty 0 -9 0 10 -159808
-1 -1 0 1;
#X obj 89 179 line~;
#X obj 158 201 line~;
#X obj 264 1 loadbang;
#X msg 264 19 0.75;
#X obj 88 226 s~ VolL1;
#X obj 157 257 s~ VolL2;
#X obj 337 108 bng 15 250 50 0 empty empty Play(2) 17 7 2 10 -258113
-1 -1;
#X obj 337 126 bng 15 250 50 0 empty empty Play2(2) 17 7 2 10 -257985
-1 -1;
#X obj 337 145 bng 15 250 50 0 empty empty Stop(2) 17 7 2 10 -260097
-1 -1;
#X obj 337 211 s play;
#X obj 337 233 s play2;
#X obj 337 255 s stop;
#X obj 319 13 r ctrl1;
#X obj 369 13 r ctrl2;
#X obj 223 227 s VolL1;
#X obj 262 254 s VolL2;
#X msg 68 37 1;
#X msg 68 59 2;
#X obj 68 122 s factor1;
#X msg 68 81 3;
#X msg 146 37 1;
#X msg 146 59 2;
#X msg 146 81 3;
#X obj 146 122 s factor2;
#X connect 2 0 18 0;
#X connect 3 0 19 0;
#X connect 4 0 8 0;
#X connect 5 0 9 0;
#X connect 6 0 7 0;
#X connect 6 0 21 0;
#X connect 6 0 25 0;
#X connect 7 0 2 0;
#X connect 7 0 3 0;
#X connect 10 0 13 0;
#X connect 11 0 14 0;
#X connect 12 0 15 0;
#X connect 16 0 2 0;
#X connect 17 0 3 0;
#X connect 20 0 22 0;
#X connect 21 0 22 0;
#X connect 23 0 22 0;
#X connect 24 0 27 0;
#X connect 25 0 27 0;
#X connect 26 0 27 0;
#X coords 0 -1 1 1 90 120 1 300 50;
#X restore 339 144 pd MasterVol;
#N canvas 533 350 590 332 MIDIcontrol 0;
#X obj 11 68 sel 36;
#X obj 11 87 bng 15 250 50 0 empty empty empty 17 7 0 10 -262144 -1
-1;
#X obj 74 106 s StopL1;
#X obj 11 26 notein;
#X obj 11 47 stripnote;
#X obj 74 87 bng 15 250 50 0 empty empty empty 17 7 0 10 -262144 -1
-1;
#X obj 74 26 notein;
#X obj 74 47 stripnote;
#X obj 136 86 bng 15 250 50 0 empty empty empty 17 7 0 10 -262144 -1
-1;
#X obj 136 25 notein;
#X obj 136 46 stripnote;
#X obj 198 86 bng 15 250 50 0 empty empty empty 17 7 0 10 -262144 -1
-1;
#X obj 198 25 notein;
#X obj 198 46 stripnote;
#X obj 74 68 sel 37;
#X obj 136 67 sel 40;
#X obj 198 67 sel 41;
#X obj 319 85 bng 15 250 50 0 empty empty empty 17 7 0 10 -262144 -1
-1;
#X obj 319 24 notein;
#X obj 319 45 stripnote;
#X obj 382 85 bng 15 250 50 0 empty empty empty 17 7 0 10 -262144 -1
-1;
#X obj 382 24 notein;
#X obj 382 45 stripnote;
#X obj 444 84 bng 15 250 50 0 empty empty empty 17 7 0 10 -262144 -1
-1;
#X obj 444 23 notein;
#X obj 444 44 stripnote;
#X obj 506 84 bng 15 250 50 0 empty empty empty 17 7 0 10 -262144 -1
-1;
#X obj 506 23 notein;
#X obj 506 44 stripnote;
#X text 10 1 Loop 1;
#X text 319 4 Loop 2;
#X obj 319 66 sel 38;
#X obj 382 66 sel 39;
#X obj 444 65 sel 42;
#X obj 506 65 sel 43;
#X obj 23 249 / 127;
#X obj 23 272 s ctrl1;
#X obj 73 249 / 127;
#X obj 122 249 / 127;
#X obj 172 249 / 127;
#X obj 73 272 s ctrl2;
#X obj 122 272 s ctrl3;
#X obj 172 272 s ctrl4;
#X obj 23 224 spigot;
#X obj 73 224 spigot;
#X obj 122 224 spigot;
#X obj 172 224 spigot;
#X obj 205 203 == 4;
#X obj 172 183 ctlin;
#X obj 122 183 ctlin;
#X obj 73 183 ctlin;
#X obj 23 183 ctlin;
#X obj 155 203 == 3;
#X obj 106 203 == 2;
#X obj 56 203 == 1;
#X obj 287 243 / 127;
#X obj 341 243 / 127;
#X obj 287 224 spigot;
#X obj 341 224 spigot;
#X obj 341 183 ctlin;
#X obj 287 183 ctlin;
#X text 24 161 Volume Control;
#X text 288 162 Loop2Filter;
#X obj 287 295 s FiltFr;
#X obj 341 295 s FiltQ;
#X obj 320 203 == 5;
#X obj 374 203 == 6;
#X obj 287 267 * 5000;
#X obj 341 267 * 4;
#X obj 11 135 s StopS1;
#X obj 136 136 s Play1S1;
#X obj 198 110 s Play2S1;
#X obj 444 134 s Play1S2;
#X obj 506 108 s Play2S2;
#X obj 382 104 s StopL2;
#X obj 319 133 s StopS2;
#X connect 0 0 1 0;
#X connect 1 0 69 0;
#X connect 3 0 4 0;
#X connect 3 1 4 1;
#X connect 4 0 0 0;
#X connect 5 0 2 0;
#X connect 6 0 7 0;
#X connect 6 1 7 1;
#X connect 7 0 14 0;
#X connect 8 0 70 0;
#X connect 9 0 10 0;
#X connect 9 1 10 1;
#X connect 10 0 15 0;
#X connect 11 0 71 0;
#X connect 12 0 13 0;
#X connect 12 1 13 1;
#X connect 13 0 16 0;
#X connect 14 0 5 0;
#X connect 15 0 8 0;
#X connect 16 0 11 0;
#X connect 17 0 75 0;
#X connect 18 0 19 0;
#X connect 18 1 19 1;
#X connect 19 0 31 0;
#X connect 20 0 74 0;
#X connect 21 0 22 0;
#X connect 21 1 22 1;
#X connect 22 0 32 0;
#X connect 23 0 72 0;
#X connect 24 0 25 0;
#X connect 24 1 25 1;
#X connect 25 0 33 0;
#X connect 26 0 73 0;
#X connect 27 0 28 0;
#X connect 27 1 28 1;
#X connect 28 0 34 0;
#X connect 31 0 17 0;
#X connect 32 0 20 0;
#X connect 33 0 23 0;
#X connect 34 0 26 0;
#X connect 35 0 36 0;
#X connect 37 0 40 0;
#X connect 38 0 41 0;
#X connect 39 0 42 0;
#X connect 43 0 35 0;
#X connect 44 0 37 0;
#X connect 45 0 38 0;
#X connect 46 0 39 0;
#X connect 47 0 46 1;
#X connect 48 0 46 0;
#X connect 48 1 47 0;
#X connect 49 0 45 0;
#X connect 49 1 52 0;
#X connect 50 0 44 0;
#X connect 50 1 53 0;
#X connect 51 0 43 0;
#X connect 51 1 54 0;
#X connect 52 0 45 1;
#X connect 53 0 44 1;
#X connect 54 0 43 1;
#X connect 55 0 67 0;
#X connect 56 0 68 0;
#X connect 57 0 55 0;
#X connect 58 0 56 0;
#X connect 59 0 58 0;
#X connect 59 1 66 0;
#X connect 60 0 57 0;
#X connect 60 1 65 0;
#X connect 65 0 57 1;
#X connect 66 0 58 1;
#X connect 67 0 63 0;
#X connect 68 0 64 0;
#X restore 102 303 pd MIDIcontrol;
#N canvas 387 635 450 300 ToDAC.. 0;
#X obj 83 62 catch~ Vol;
#X obj 153 62 catch~ Vol2;
#X obj 254 144 catch~ VolMono;
#X obj 83 191 outlet~;
#X obj 154 191 outlet~;
#X obj 251 101 r~ clean;
#X obj 83 82 *~ 0.7;
#X obj 153 82 *~ 0.7;
#X obj 143 19 inlet;
#X obj 154 150 *~ 2;
#X obj 83 150 *~ 2;
#X obj 153 101 clip~ -3 3;
#X obj 83 101 clip~ -3 3;
#X connect 0 0 6 0;
#X connect 1 0 7 0;
#X connect 6 0 12 0;
#X connect 7 0 11 0;
#X connect 8 0 6 1;
#X connect 8 0 7 1;
#X connect 9 0 4 0;
#X connect 10 0 3 0;
#X connect 11 0 9 0;
#X connect 12 0 10 0;
#X restore 23 256 pd ToDAC..;
#N canvas 265 286 802 589 SamplerI 0;
#X obj 57 553 throw~ RecordedLoop1;
#X obj 57 110 openpanel;
#X obj 57 86 bng 15 250 50 0 empty empty empty 0 -6 0 8 -260097 -1
-1;
#X obj 57 162 soundfiler;
#X obj 57 189 expr 44100 / $f1;
#X floatatom 57 217 15 0 0 0 - - -;
#X obj 57 248 phasor~;
#X obj 57 305 *~;
#X text 82 84 Cargar archivo de audio;
#X msg 57 136 read -resize \$1 arreglo1;
#X obj 56 457 tabread4~ arreglo1;
#X floatatom 374 91 5 0 0 0 - - -;
#X msg 347 121 0;
#X obj 347 64 t b b;
#X floatatom 338 206 5 0 0 0 - - -;
#X msg 338 188 bang;
#X obj 57 526 clip~ -1 1;
#X floatatom 143 370 5 0 0 0 - - -;
#X floatatom 71 351 5 0 0 0 - - -;
#X obj 71 394 *~;
#X obj 56 425 +~;
#X obj 71 368 phasor~;
#X msg 71 333 215;
#X msg 143 353 81;
#X msg 173 353 0;
#X text 375 119 Stop;
#X text 372 188 Play 1;
#X obj 336 304 f;
#X obj 362 290 bng 15 250 50 0 empty empty empty 17 7 0 10 -262144
-1 -1;
#X obj 501 101 cnv 15 148 16 empty empty SamplerI 20 8 2 14 -1 -262144
0;
#X obj 501 118 cnv 15 148 91 empty empty empty 20 12 0 14 -261234 -66577
0;
#X obj 505 124 bng 15 250 50 0 empty empty Open 17 7 2 10 -258113 -1
-1;
#X obj 505 143 bng 15 250 50 0 empty empty Play 17 7 2 10 -262144 -1
-1;
#X obj 505 160 bng 15 250 50 0 empty empty Play2 17 7 2 10 -262144
-1 -1;
#X obj 505 179 bng 15 250 50 0 empty empty Stop 17 7 2 10 -260097 -1
-1;
#X obj 569 151 nbx 5 14 0 1e+37 0 0 empty empty empty 0 -8 0 10 -262144
-1 -1 0 256;
#X obj 569 168 nbx 5 14 0 1e+37 0 0 empty empty empty 0 -8 0 10 -262144
-1 -1 0 256;
#X obj 569 129 nbx 8 14 -1e+37 1e+37 0 0 empty empty empty 0 -8 0 10
-162280 -1 -1 0.934333 256;
#X obj 569 353 + 0;
#X obj 569 334 + 0;
#X text 387 294 Play 2;
#N canvas 0 0 450 300 (subpatch) 0;
#X array arreglo1 173395 float 2;
#X coords 0 1 173395 -1 200 140 1 0 0;
#X restore 451 418 graph;
#X obj 504 51 r Play1S1;
#X obj 505 251 r StopS1;
#X obj 504 26 r Play2S1;
#X obj 569 68 r rand;
#X obj 594 187 nbx 5 14 -1e+37 1e+37 0 0 empty empty FineTune -45 6
2 10 -262144 -1 -1 153 256;
#X obj 594 264 +;
#X obj 594 223 * 0.0001;
#X text 621 245 Mecanismo para tener control;
#X text 625 260 fino;
#X obj 57 500 *~ 1;
#X obj 692 162 r stop;
#X obj 692 125 r play;
#X obj 692 143 r play2;
#X connect 1 0 9 0;
#X connect 2 0 1 0;
#X connect 3 0 4 0;
#X connect 3 0 7 1;
#X connect 4 0 5 0;
#X connect 4 0 14 0;
#X connect 4 0 37 0;
#X connect 5 0 6 0;
#X connect 5 0 27 1;
#X connect 6 0 7 0;
#X connect 7 0 20 0;
#X connect 9 0 3 0;
#X connect 10 0 51 0;
#X connect 11 0 6 1;
#X connect 12 0 6 0;
#X connect 13 0 12 0;
#X connect 13 1 11 0;
#X connect 14 0 37 0;
#X connect 15 0 14 0;
#X connect 16 0 0 0;
#X connect 17 0 19 1;
#X connect 18 0 21 0;
#X connect 19 0 20 1;
#X connect 20 0 10 0;
#X connect 21 0 19 0;
#X connect 22 0 18 0;
#X connect 23 0 17 0;
#X connect 24 0 17 0;
#X connect 27 0 37 0;
#X connect 28 0 27 0;
#X connect 31 0 1 0;
#X connect 32 0 15 0;
#X connect 33 0 28 0;
#X connect 34 0 13 0;
#X connect 35 0 39 0;
#X connect 36 0 38 0;
#X connect 37 0 47 1;
#X connect 37 0 5 0;
#X connect 38 0 17 0;
#X connect 39 0 18 0;
#X connect 42 0 32 0;
#X connect 43 0 34 0;
#X connect 44 0 33 0;
#X connect 45 0 37 0;
#X connect 46 0 48 0;
#X connect 47 0 5 0;
#X connect 48 0 47 0;
#X connect 51 0 16 0;
#X connect 52 0 34 0;
#X connect 53 0 32 0;
#X connect 54 0 33 0;
#X coords 0 -1 1 1 150 110 1 500 100;
#X restore 16 23 pd SamplerI;
#N canvas 278 221 802 589 SamplerI 0;
#X obj 57 110 openpanel;
#X obj 57 162 soundfiler;
#X obj 57 189 expr 44100 / $f1;
#X floatatom 57 217 15 0 0 0 - - -;
#X obj 57 248 phasor~;
#X obj 57 305 *~;
#X text 82 84 Cargar archivo de audio;
#X floatatom 374 91 5 0 0 0 - - -;
#X msg 347 121 0;
#X obj 347 64 t b b;
#X floatatom 338 206 5 0 0 0 - - -;
#X msg 338 188 bang;
#X obj 57 526 clip~ -1 1;
#X floatatom 143 370 5 0 0 0 - - -;
#X floatatom 71 351 5 0 0 0 - - -;
#X obj 71 394 *~;
#X obj 56 425 +~;
#X obj 71 368 phasor~;
#X msg 71 333 215;
#X msg 143 353 81;
#X msg 173 353 0;
#X text 375 119 Stop;
#X text 372 188 Play 1;
#X obj 338 263 f;
#X obj 364 249 bng 15 250 50 0 empty empty empty 17 7 0 10 -262144
-1 -1;
#X obj 501 101 cnv 15 148 16 empty empty SamplerII 20 8 2 14 -1 -262144
0;
#X obj 501 118 cnv 15 148 91 empty empty empty 20 12 0 14 -261234 -66577
0;
#X obj 505 124 bng 15 250 50 0 empty empty Open 17 7 2 10 -258113 -1
-1;
#X obj 505 143 bng 15 250 50 0 empty empty Play 17 7 2 10 -262144 -1
-1;
#X obj 505 160 bng 15 250 50 0 empty empty Play2 17 7 2 10 -262144
-1 -1;
#X obj 505 179 bng 15 250 50 0 empty empty Stop 17 7 2 10 -260097 -1
-1;
#X obj 569 151 nbx 5 14 0 1e+37 0 0 empty empty empty 0 -8 0 10 -262144
-1 -1 0 256;
#X obj 569 168 nbx 5 14 0 1e+37 0 0 empty empty empty 0 -8 0 10 -262144
-1 -1 0 256;
#X obj 569 129 nbx 8 14 -1e+37 1e+37 0 0 empty empty empty 0 -8 0 10
-162280 -1 -1 0.279696 256;
#X obj 569 353 + 0;
#X obj 569 334 + 0;
#X text 389 253 Play 2;
#X obj 57 553 throw~ RecordedLoop2;
#X obj 57 86 bng 15 250 50 0 empty empty empty 0 -6 0 8 -260097 -1
-1;
#X obj 56 457 tabread4~ arreglo2;
#X msg 57 136 read -resize \$1 arreglo2;
#N canvas 1 94 450 300 (subpatch) 0;
#X array arreglo2 157671 float 2;
#X coords 0 1 157671 -1 200 140 1 0 0;
#X restore 461 401 graph;
#X obj 504 36 r Play2S2;
#X obj 504 62 r Play1S2;
#X obj 505 261 r StopS2;
#X obj 569 74 r rand2;
#X obj 603 191 nbx 5 14 -1e+37 1e+37 0 0 empty empty FineTune -45 6
2 10 -262144 -1 -1 -70 256;
#X obj 603 268 +;
#X obj 603 227 * 0.0001;
#X text 630 249 Mecanismo para tener control;
#X text 634 264 fino;
#X obj 57 500 *~ 1;
#X obj 702 162 r stop;
#X obj 702 125 r play;
#X obj 702 143 r play2;
#X connect 0 0 40 0;
#X connect 1 0 2 0;
#X connect 1 0 5 1;
#X connect 2 0 3 0;
#X connect 2 0 10 0;
#X connect 2 0 33 0;
#X connect 3 0 4 0;
#X connect 4 0 5 0;
#X connect 5 0 16 0;
#X connect 7 0 4 1;
#X connect 8 0 4 0;
#X connect 9 0 8 0;
#X connect 9 1 7 0;
#X connect 10 0 33 0;
#X connect 11 0 10 0;
#X connect 12 0 37 0;
#X connect 13 0 15 1;
#X connect 14 0 17 0;
#X connect 15 0 16 1;
#X connect 16 0 39 0;
#X connect 17 0 15 0;
#X connect 18 0 14 0;
#X connect 19 0 13 0;
#X connect 20 0 13 0;
#X connect 23 0 33 0;
#X connect 24 0 23 0;
#X connect 27 0 0 0;
#X connect 28 0 11 0;
#X connect 29 0 24 0;
#X connect 30 0 9 0;
#X connect 31 0 35 0;
#X connect 32 0 34 0;
#X connect 33 0 3 0;
#X connect 33 0 23 1;
#X connect 33 0 47 1;
#X connect 34 0 13 0;
#X connect 35 0 14 0;
#X connect 38 0 0 0;
#X connect 39 0 51 0;
#X connect 40 0 1 0;
#X connect 42 0 29 0;
#X connect 43 0 28 0;
#X connect 44 0 30 0;
#X connect 45 0 33 0;
#X connect 46 0 48 0;
#X connect 47 0 3 0;
#X connect 48 0 47 0;
#X connect 51 0 12 0;
#X connect 52 0 30 0;
#X connect 53 0 28 0;
#X connect 54 0 29 0;
#X coords 0 -1 1 1 150 110 1 500 100;
#X restore 16 136 pd SamplerI;
#N canvas 403 290 450 300 AutomaticFoldover 0;
#X obj -37 109 random 1000;
#X obj -37 150 + 1000;
#X obj -37 175 s rand;
#X obj 42 151 + 1000;
#X obj 42 176 s rand2;
#X obj 42 109 random 2000;
#N canvas 388 278 663 429 df 0;
#X text 75 86 Generates a brownian-movement-like rhythm of a geometrical
row of entry delays (ED) between a minimum and a maximum entry delay
and a certain number of ED-values. The brownian factor determines the
distance between two succeding rhythmical values. A factor of 0 produces
a periodic rhythm \, wheras a factor of 1 will output random values
of the given range.;
#X floatatom 419 350 8 0 0 3 chosen_ED - -;
#X floatatom 258 350 4 0 0 3 row_index - -;
#X obj 97 278 tgl 15 0 empty empty start/stop 0 -6 0 8 -262144 -1 -1
0 1;
#X floatatom 177 284 4 0 0 2 min_ED - -;
#X floatatom 257 284 4 0 0 2 max_ED - -;
#X floatatom 417 284 4 0 0 2 brownian_factor - -;
#X floatatom 337 284 4 0 0 2 ED-values - -;
#X msg 233 228 serial-rhythm;
#X msg 144 228 alea-rhythm;
#X text 78 229 see also:;
#X msg 332 228 sneak-rhythm;
#X obj 550 284 vsl 15 128 0 12 0 0 empty empty empty 0 -8 0 8 -262144
-1 -1 0 1;
#X text 571 266 display;
#X text 577 285 max. ED;
#X text 577 387 min. ED;
#X obj 550 223 lb 12;
#X text 197 65 vs. 2;
#X text 61 65 brown-rhythm;
#X text 79 436 1993-94 by Karlheinz Essl;
#X obj 97 317 brown-rhythm 100 1000 12 0.25;
#X obj 139 361 bng 15 250 50 0 empty empty empty 0 -6 0 8 -262144 -1
-1;
#X msg 550 248 range 0 \$1;
#X obj 97 386 QT-PercPlayer;
#X msg 97 350 60;
#X obj 79 196 inlet;
#X obj 152 179 loadbang;
#X msg 151 202 50;
#X msg 214 206 350;
#X obj 230 404 outlet;
#X connect 2 0 12 0;
#X connect 3 0 20 0;
#X connect 4 0 20 1;
#X connect 5 0 20 2;
#X connect 6 0 20 4;
#X connect 7 0 20 3;
#X connect 7 0 22 0;
#X connect 16 0 22 0;
#X connect 20 0 24 0;
#X connect 20 0 21 0;
#X connect 20 1 2 0;
#X connect 20 2 1 0;
#X connect 21 0 29 0;
#X connect 22 0 12 0;
#X connect 24 0 23 0;
#X connect 25 0 3 0;
#X connect 26 0 27 0;
#X connect 26 0 28 0;
#X connect 27 0 4 0;
#X connect 28 0 5 0;
#X restore -37 75 pd df;
#N canvas 387 280 663 429 df2 0;
#X text 75 86 Generates a brownian-movement-like rhythm of a geometrical
row of entry delays (ED) between a minimum and a maximum entry delay
and a certain number of ED-values. The brownian factor determines the
distance between two succeding rhythmical values. A factor of 0 produces
a periodic rhythm \, wheras a factor of 1 will output random values
of the given range.;
#X floatatom 419 350 8 0 0 3 chosen_ED - -;
#X floatatom 258 350 4 0 0 3 row_index - -;
#X obj 97 278 tgl 15 0 empty empty start/stop 0 -6 0 8 -262144 -1 -1
0 1;
#X floatatom 177 284 4 0 0 2 min_ED - -;
#X floatatom 257 284 4 0 0 2 max_ED - -;
#X floatatom 417 284 4 0 0 2 brownian_factor - -;
#X floatatom 337 284 4 0 0 2 ED-values - -;
#X msg 233 228 serial-rhythm;
#X msg 144 228 alea-rhythm;
#X text 78 229 see also:;
#X msg 332 228 sneak-rhythm;
#X obj 550 284 vsl 15 128 0 12 0 0 empty empty empty 0 -8 0 8 -262144
-1 -1 0 1;
#X text 571 266 display;
#X text 577 285 max. ED;
#X text 577 387 min. ED;
#X obj 550 223 lb 12;
#X text 197 65 vs. 2;
#X text 61 65 brown-rhythm;
#X text 79 436 1993-94 by Karlheinz Essl;
#X obj 97 317 brown-rhythm 100 1000 12 0.25;
#X obj 139 361 bng 15 250 50 0 empty empty empty 0 -6 0 8 -262144 -1
-1;
#X msg 550 248 range 0 \$1;
#X obj 97 386 QT-PercPlayer;
#X msg 97 350 60;
#X obj 79 196 inlet;
#X obj 152 179 loadbang;
#X obj 230 404 outlet;
#X msg 151 202 45;
#X msg 214 206 300;
#X connect 2 0 12 0;
#X connect 3 0 20 0;
#X connect 4 0 20 1;
#X connect 5 0 20 2;
#X connect 6 0 20 4;
#X connect 7 0 20 3;
#X connect 7 0 22 0;
#X connect 16 0 22 0;
#X connect 20 0 24 0;
#X connect 20 0 21 0;
#X connect 20 1 2 0;
#X connect 20 2 1 0;
#X connect 21 0 27 0;
#X connect 22 0 12 0;
#X connect 24 0 23 0;
#X connect 25 0 3 0;
#X connect 26 0 28 0;
#X connect 26 0 29 0;
#X connect 28 0 4 0;
#X connect 29 0 5 0;
#X restore 42 75 pd df2;
#X obj -37 27 inlet;
#X connect 0 0 1 0;
#X connect 1 0 2 0;
#X connect 3 0 4 0;
#X connect 5 0 3 0;
#X connect 6 0 0 0;
#X connect 7 0 5 0;
#X connect 8 0 6 0;
#X connect 8 0 7 0;
#X restore 460 211 pd AutomaticFoldover;
#X obj 126 283 import rtc;
#X obj 460 182 tgl 15 0 empty empty empty 17 7 0 10 -262144 -1 -1 0
1;
#X text 193 264 Introspeccion III Sublimacion;
#X text 380 3 Revision #1 February 20 \, 2016;
#X text 193 276 Composed and programmed by Daniel Daowz;
#X text 421 288 Copyright © 2016 Daniel Daowz;
#X text 372 300 Patch licensed under Creative Commons Attribution-ShareAlike
4 International;
#X connect 8 0 0 0;
#X connect 8 1 0 1;
#X connect 13 0 11 0;
